<svg width="56" height="56" viewBox="0 0 56 56" fill="none" xmlns="http://www.w3.org/2000/svg">
<path d="M9.91667 0H46.0833C51.5667 0 56 4.54701 56 10.1709V45.8291C56 51.453 51.5667 56 46.0833 56H9.91667C4.43333 56 0 51.453 0 45.8291V10.1709C0 4.54701 4.43333 0 9.91667 0Z" fill="#001E36"/>
<path fill-rule="evenodd" clip-rule="evenodd" d="M11.6667 15.6847V39.915C11.6667 40.1268 11.76 40.2211 11.9467 40.2211H16.38H16.4733C16.6367 40.1975 16.7533 40.0563 16.73 39.8914V32.3327H16.7301C17.1733 32.3327 17.5 32.3327 17.7333 32.3563C17.9667 32.3798 18.34 32.3798 18.9 32.3798C20.8133 32.3798 22.5633 32.1678 24.15 31.5791C25.6667 31.014 26.9733 30.025 27.9067 28.7063C28.84 27.3878 29.3067 25.7158 29.3067 23.6908C29.3067 22.6312 29.12 21.6186 28.77 20.6296C28.3967 19.6171 27.8133 18.6988 27.0667 17.9452C26.18 17.074 25.1067 16.4147 23.94 16.0143C22.6333 15.5199 21.0467 15.2844 19.1333 15.2844C18.4333 15.2844 17.7333 15.2844 17.01 15.3079C16.6608 15.3193 16.3225 15.3251 15.995 15.3309C15.6442 15.3369 15.3058 15.3429 14.98 15.355C14.6744 15.3664 14.3799 15.3723 14.0936 15.378C13.7896 15.3841 13.4951 15.39 13.2067 15.4021C12.67 15.4257 12.2967 15.4257 11.9 15.4257C11.7367 15.4257 11.6667 15.5199 11.6667 15.6847ZM16.7533 27.8822V19.9703C16.9167 19.9468 17.2433 19.9232 17.71 19.9468C18.1533 19.9232 18.69 19.9232 19.2967 19.9232C20.2533 19.8996 21.1867 20.0409 22.05 20.3942C22.7267 20.6532 23.2867 21.1242 23.6833 21.7363C24.0567 22.3722 24.2433 23.1021 24.22 23.8321C24.22 24.8681 23.9867 25.6688 23.4967 26.2575C22.9833 26.8461 22.33 27.2935 21.5833 27.5055C20.72 27.7881 19.81 27.9293 18.9 27.9293H17.6633C17.4034 27.9293 17.1234 27.909 16.8233 27.8873C16.8001 27.8856 16.7768 27.884 16.7533 27.8822Z" fill="#31A8FF"/>
<path d="M43.8667 26.446C43.1667 26.0693 42.42 25.8103 41.6267 25.6455C40.7633 25.457 39.9 25.3393 39.0133 25.3393C38.5467 25.3158 38.0567 25.3865 37.6133 25.5042C37.31 25.5748 37.0533 25.7396 36.89 25.975C36.7733 26.1635 36.7033 26.3989 36.7033 26.6109C36.7033 26.8227 36.7967 27.0347 36.9367 27.2231C37.1467 27.4821 37.4267 27.694 37.73 27.8589C38.2667 28.1414 38.8267 28.4004 39.3867 28.636C40.6467 29.0598 41.86 29.6485 42.98 30.3549C43.75 30.8494 44.38 31.5088 44.8233 32.3093C45.1967 33.0629 45.3833 33.887 45.36 34.7347C45.3833 35.8414 45.0567 36.9481 44.45 37.8665C43.7967 38.8084 42.8867 39.5384 41.8367 39.9622C40.6933 40.4568 39.2933 40.7158 37.6133 40.7158C36.54 40.7158 35.49 40.6216 34.44 40.4096C33.6233 40.2683 32.8067 40.0093 32.06 39.6561C31.8967 39.5619 31.78 39.3971 31.8033 39.2088V35.1114C31.8033 35.0409 31.8267 34.9467 31.8967 34.8996C31.9667 34.8524 32.0367 34.876 32.1067 34.9231C33.0167 35.4647 33.9733 35.8414 35 36.077C35.8867 36.3124 36.82 36.4301 37.7533 36.4301C38.64 36.4301 39.27 36.3124 39.69 36.1004C40.0633 35.9357 40.32 35.5353 40.32 35.1114C40.32 34.7819 40.1333 34.4757 39.76 34.1696C39.3867 33.8635 38.6167 33.5103 37.4733 33.0629C36.2833 32.639 35.1867 32.0739 34.16 31.3675C33.4367 30.8494 32.83 30.1665 32.3867 29.366C32.0133 28.6124 31.8267 27.7883 31.85 26.964C31.85 25.9516 32.13 24.9861 32.6433 24.1148C33.2267 23.1729 34.09 22.4194 35.0933 21.9485C36.19 21.3834 37.5667 21.1243 39.2233 21.1243C40.18 21.1243 41.16 21.195 42.1167 21.3363C42.8167 21.4304 43.4933 21.6188 44.1233 21.8778C44.2167 21.9014 44.31 21.9955 44.3567 22.0898C44.38 22.184 44.4033 22.2781 44.4033 22.3724V26.2106C44.4033 26.3047 44.3567 26.3989 44.2867 26.446C44.0767 26.4932 43.96 26.4932 43.8667 26.446Z" fill="#31A8FF"/>
</svg>
