<svg width="64" height="64" viewBox="0 0 64 64" fill="none" xmlns="http://www.w3.org/2000/svg">
<path fill-rule="evenodd" clip-rule="evenodd" d="M7.11111 64H56.8889C60.8162 64 64 60.8162 64 56.8889V7.11111C64 3.18375 60.8162 0 56.8889 0H7.11111C3.18375 0 0 3.18375 0 7.11111V56.8889C0 60.8162 3.18375 64 7.11111 64Z" fill="#3E75C3"/>
<path fill-rule="evenodd" clip-rule="evenodd" d="M31.9986 10.6667C20.2186 10.6667 10.6666 20.2553 10.6666 32.086C10.6666 41.5473 16.7786 49.575 25.2573 52.4076C26.324 52.6043 26.7133 51.9431 26.7133 51.3755C26.7133 50.8668 26.6946 49.5202 26.684 47.7331C20.7493 49.0275 19.4973 44.8618 19.4973 44.8618C18.528 42.388 17.1293 41.7294 17.1293 41.7294C15.192 40.4001 17.276 40.4269 17.276 40.4269C19.416 40.5782 20.5426 42.6343 20.5426 42.6343C22.4466 45.9072 25.536 44.9622 26.752 44.4133C26.9453 43.0292 27.4973 42.0855 28.1066 41.55C23.3693 41.0092 18.3893 39.1726 18.3893 30.9656C18.3893 28.627 19.22 26.7154 20.5853 25.2175C20.3653 24.6754 19.6333 22.4988 20.7933 19.5498C20.7933 19.5498 22.5853 18.9742 26.66 21.7452C28.3626 21.2699 30.1866 21.033 32.0013 21.0236C33.8133 21.033 35.6386 21.2699 37.3426 21.7452C41.4146 18.9742 43.2026 19.5498 43.2026 19.5498C44.3666 22.4988 43.6346 24.6754 43.4146 25.2175C44.7826 26.7154 45.608 28.627 45.608 30.9656C45.608 39.1927 40.62 41.0039 35.868 41.534C36.6333 42.1952 37.316 43.5017 37.316 45.5003C37.316 48.3636 37.2893 50.6727 37.2893 51.3755C37.2893 51.9484 37.6733 52.615 38.756 52.4049C47.2266 49.567 53.3333 41.5447 53.3333 32.086C53.3333 20.2553 43.7813 10.6667 31.9986 10.6667Z" fill="white"/>
</svg>
