<svg width="64" height="64" viewBox="0 0 64 64" fill="none" xmlns="http://www.w3.org/2000/svg">
<path fill-rule="evenodd" clip-rule="evenodd" d="M61.1505 29.3175C60.8505 28.668 60.7055 27.8995 60.6745 27.176C60.5975 25.3955 60.663 23.6085 60.5825 21.828C60.5105 20.2335 59.9415 18.7965 58.4105 17.9745C57.0625 17.251 55.5 17.179 54 17.162V20.0075C54.5 20.0245 54.377 20.04 54.499 20.0465C56.5135 20.1455 57.1885 20.7845 57.214 22.783C57.233 24.269 57.22 25.756 57.244 27.2415C57.2735 29.044 57.5425 30.7645 59.191 31.9025C59.219 31.922 59.2165 31.9935 59.2325 32.0765C58.3935 32.6725 57.7295 33.44 57.5365 34.4875C57.381 35.335 57.293 36.2025 57.2665 37.064C57.2185 38.623 57.268 40.1855 57.2235 41.7445C57.1885 42.9655 56.61 43.5385 55.4215 43.8105C54.974 43.9135 54.5 43.95 54 44.0135V46.852C55 46.792 55.5085 46.7525 56.1935 46.6785C58.7715 46.3995 60.223 45.058 60.5205 42.557C60.6135 41.773 60.603 40.974 60.6205 40.182C60.6535 38.6975 60.6365 37.206 60.7695 35.7305C60.905 34.225 62 33.393 63.5 33.476V30.5005C62.5 30.6795 61.5785 30.247 61.1505 29.3175V29.3175ZM14.157 35.384C14.1565 29.6095 14 23.835 14 18.061V17.1525C12.5 17.1525 10.887 17.138 9.3045 17.1595C8.662 17.168 8.0955 17.223 7.4585 17.31C5.02 17.642 3.8445 18.7865 3.4125 21.216C3.2875 21.917 3.3125 22.6455 3.302 23.3625C3.2825 24.7255 3.3215 26.089 3.2995 27.4515C3.272 29.1675 2.4635 30.4975 0.7135 30.5985C0.6515 30.602 1 30.6735 0.5 30.7165V33.369C2.5 33.683 3.1365 34.4905 3.2695 36.3485C3.2905 36.6445 3.296 36.943 3.299 37.2405C3.316 38.9005 3.297 40.563 3.372 42.22C3.4425 43.7665 3.786 45.1485 5.2475 45.96C6.6125 46.718 8.5 46.7795 9.5 46.819V43.987C9.5 43.963 9.395 43.941 9.2975 43.935C7.128 43.8025 6.639 43.2135 6.626 41.0425C6.6175 39.605 6.679 38.1675 6.656 36.73C6.627 34.924 6.363 33.211 4.728 32.068C4.703 32.0505 4.7275 31.9765 4.7195 31.8765C5.819 31.1815 6.4035 30.1185 6.5625 28.8295C6.6505 28.1185 6.68 27.3975 6.6925 26.68C6.7175 25.1935 6.691 23.7055 6.7315 22.22C6.76 21.176 7.4265 20.415 8.277 20.244C9.083 20.0815 9.5 20.0865 11 20.011V21.039C11 26.194 10.8165 31.3485 10.8435 36.5035C10.853 38.269 11.0485 40.0095 12.941 40.772C13.97 41.1865 15.0725 41.314 16.2545 41.593C16.452 40.437 16.5165 39.478 16.678 38.529C14.4995 37.904 14.157 37.58 14.157 35.384V35.384ZM27.494 25.4375C23.824 23.6825 19.37 25.217 17.661 28.898C16.374 31.67 16.42 34.523 17.553 37.334C18.1675 38.858 19.278 39.999 20.7895 40.67C23.7415 41.9805 26.729 41.662 29.7055 40.742C29.866 40.692 30.071 40.383 30.0515 40.219C29.95 39.3885 29.7815 38.566 29.631 37.7085C28.9225 37.887 28.3305 38.0695 27.7255 38.183C26.127 38.4835 24.525 38.483 22.9695 37.8645C21.4335 37.2545 20.402 35.4995 20.6585 33.9995H31.0945C31.222 32.4995 31.1715 30.437 30.533 28.7315C29.963 27.207 28.979 26.148 27.494 25.4375V25.4375ZM27.472 31.5H20.614C20.6175 29.5 22.246 27.705 24.3825 27.746C26.259 27.782 27.557 29.5 27.472 31.5ZM55.526 37.6395C55.772 35.1125 55.009 33.6905 52.759 32.5925C51.961 32.203 51.114 31.9145 50.301 31.5535C49.6925 31.2835 49.08 31.01 48.511 30.668C47.957 30.3355 47.725 29.7835 47.807 29.137C47.8875 28.4985 48.298 28.0775 48.891 27.9575C49.6095 27.8115 50.3625 27.6865 51.085 27.7455C52.106 27.829 53.113 28.0905 54.1665 28.283L54.8325 25.374C53.407 25.157 52.078 24.8765 50.735 24.7705C49.2415 24.653 47.787 24.901 46.42 25.6055C43.5315 27.094 43.4785 31.6635 46.133 33.1635C46.926 33.6115 47.7745 33.9615 48.5995 34.3535C49.468 34.767 50.368 35.1265 51.199 35.6055C51.83 35.969 52.0555 36.6035 51.8865 37.343C51.73 38.0305 51.2095 38.337 50.598 38.3955C49.668 38.484 48.714 38.569 47.7935 38.4595C46.685 38.3275 45.6 37.991 44.4645 37.734L43.8855 40.629C46.552 41.63 49.1905 41.794 51.8545 41.2035C54.084 40.7095 55.354 39.4055 55.526 37.6395V37.6395ZM41.3185 32.9135C40.339 32.394 39.2855 32.015 38.2745 31.552C37.647 31.2645 36.9825 31.015 36.4295 30.6165C35.366 29.85 35.564 28.3805 36.8025 27.9875C37.513 27.7615 38.3165 27.6915 39.063 27.7475C40.08 27.824 41.0835 28.087 42.144 28.279L42.773 25.506C42.2345 25.3595 41.747 25.2 41.2475 25.095C39.262 24.677 37.266 24.515 35.3105 25.2025C33.6305 25.7935 32.465 26.8985 32.2345 28.7575C31.9765 30.8335 32.665 32.4725 34.5825 33.4585C35.35 33.8535 36.1725 34.14 36.956 34.506C37.738 34.871 38.5365 35.2195 39.263 35.6775C39.8185 36.0275 40.0375 36.62 39.881 37.305C39.7255 37.984 39.2305 38.326 38.6145 38.3895C37.6845 38.485 36.73 38.5735 35.809 38.466C34.696 38.336 33.6075 37.9985 32.452 37.7385C32.2815 38.545 32.0815 39.3575 31.957 40.181C31.93 40.36 32.1295 40.704 32.2975 40.7625C34.9895 41.6955 37.7295 41.8295 40.4675 41.023C42.1025 40.542 43.246 39.4975 43.4765 37.7115C43.738 35.684 43.2545 33.9395 41.3185 32.9135V32.9135Z" fill="#2A4D80"/>
</svg>
