<svg width="64" height="64" viewBox="0 0 64 64" fill="none" xmlns="http://www.w3.org/2000/svg">
<path fill-rule="evenodd" clip-rule="evenodd" d="M18.4826 17.7296C18.9211 22.3456 19.3561 26.9356 19.8011 31.6286C20.5266 30.3811 21.0516 29.1846 21.8436 28.2046C22.5811 27.2916 23.5106 26.4491 24.5221 25.8656C25.8426 25.1036 27.5741 25.8211 28.0021 27.1726C28.1171 27.5351 27.8426 28.0211 27.7466 28.4506C27.4236 28.2801 27.0071 28.1861 26.7961 27.9251C25.8996 26.8166 25.3596 26.6856 24.3681 27.6436C22.5186 29.4316 21.4786 31.6716 21.0816 34.1891C21.0051 34.6761 21.3096 35.2226 21.4381 35.7416C21.9436 35.5676 22.5306 35.5036 22.9391 35.1996C24.2671 34.2111 25.0901 32.8666 25.5441 31.2596C25.6426 30.9116 26.1766 30.6871 26.5106 30.4056C26.6706 30.7346 27.0356 31.1221 26.9591 31.3826C26.2556 33.8026 25.4921 36.2071 24.6911 38.5971C24.6101 38.8391 24.1656 38.9596 23.8891 39.1366C23.7776 38.8186 23.5431 38.4856 23.5806 38.1861C23.6646 37.5071 23.8831 36.8446 24.0356 36.2226L20.4156 37.8891C20.6181 40.2001 20.8281 42.7926 21.0771 45.3816C21.2681 47.3586 21.5916 47.8706 23.5386 48.2456C25.8106 48.6831 28.1251 48.9626 30.4346 49.1326C33.8471 49.3841 37.2296 49.0731 40.5496 48.1806C41.7856 47.8486 42.2786 47.0356 42.3671 45.8221C42.4481 44.7046 42.6291 43.5941 42.7546 42.4796C43.0011 40.2841 43.2406 38.0881 43.4926 35.8006C42.6591 36.3286 42.0036 36.9196 41.2371 37.1701C40.6791 37.3526 39.9751 37.0856 39.3356 37.0186C39.4581 36.4316 39.4506 35.7701 39.7336 35.2751C40.1946 34.4661 40.8456 33.7646 41.4156 33.0176L41.1701 32.7221C40.7616 32.9636 40.2541 33.1221 39.9636 33.4646C39.3726 34.1616 38.7941 34.9076 38.3986 35.7246C37.7366 37.0921 37.2321 38.5356 36.6396 39.9376C36.3821 40.5456 36.1601 41.4756 35.2976 41.1206C34.3751 40.7401 35.0241 39.9276 35.2406 39.3496C35.5851 38.4276 36.0401 37.5466 36.3481 36.8686C35.4751 36.9726 34.5901 37.0981 33.7011 37.1756C33.3251 37.2076 32.8781 37.0016 32.5706 37.1406C31.5481 37.6026 30.9001 37.4171 30.6876 36.2851C30.2141 36.5926 29.8131 37.0091 29.3406 37.1211C28.7671 37.2576 27.9891 37.3471 27.5691 37.0606C27.2326 36.8311 27.1101 35.9686 27.2251 35.4626C27.4536 34.4566 27.8806 33.4896 28.2861 32.5331C28.5371 31.9406 28.7896 30.9946 29.6366 31.4066C30.4736 31.8131 29.7136 32.4991 29.5206 33.0496C29.2211 33.9006 28.9161 34.7501 28.6141 35.6001L29.0941 35.8901C29.5511 35.4931 30.1206 35.1696 30.4406 34.6826C30.9646 33.8866 31.2811 32.9566 31.7771 32.1396C31.9826 31.8011 32.4251 31.6071 32.7606 31.3476C32.8286 31.7786 32.9916 32.2216 32.9376 32.6376C32.8841 33.0581 32.5886 33.4426 32.4471 33.8586C32.2346 34.4816 32.0631 35.1186 31.8471 35.8431C32.8686 35.8821 33.3061 35.4521 33.5946 34.6936C34.5076 32.2971 35.4306 29.9031 36.4341 27.5436C36.6056 27.1396 37.1886 26.9116 37.5821 26.6016C37.6276 27.0886 37.8446 27.6406 37.6901 28.0511C36.8676 30.2256 35.9441 32.3611 35.0761 34.5186C34.9296 34.8821 34.8826 35.2856 34.7901 35.6706C36.3196 34.9831 37.5961 34.2231 38.0621 32.5976C38.1761 32.2026 38.6431 31.9091 38.9476 31.5686L39.6556 32.3186C39.8706 32.1376 40.0676 31.9316 40.3011 31.7811C41.0361 31.3076 41.8276 30.8901 42.6026 31.6236C43.4046 32.3821 42.7976 33.1211 42.3786 33.7771C41.9226 34.4926 41.3641 35.1421 40.8501 35.8201C42.0061 35.0751 43.5846 34.7411 43.7946 33.1311C44.3066 29.1986 44.7566 25.2581 45.2131 21.3186C45.3486 20.1526 45.4211 18.9791 45.5266 17.7641C36.4216 19.9686 27.5121 19.9821 18.4826 17.7296V17.7296ZM22.3906 48.4141C22.8291 49.5726 23.4951 50.7106 23.6696 51.9196C24.0381 54.4931 24.1316 57.1056 24.3926 59.6966C24.4306 60.0741 24.6751 60.5926 24.9801 60.7586C29.4701 63.1986 34.0036 63.6216 38.5846 60.9531C39.2681 60.5551 39.3946 60.0296 39.4831 59.2906C39.9116 55.7001 38.9576 51.8916 41.2531 48.5106C34.8251 50.1051 28.5516 50.1546 22.3906 48.4141V48.4141ZM37.8861 18.3741C40.0671 18.1636 42.2216 17.6516 44.3786 17.2286C44.7851 17.1491 45.1461 16.8396 45.5281 16.6361C45.0246 16.1936 44.5891 15.9806 44.1341 15.9271C41.8691 15.6596 39.5961 15.4536 37.3326 15.1731C36.9906 15.1306 36.3801 14.7086 36.4056 14.6316C37.0661 12.6416 37.0336 10.3891 38.5326 8.71209C40.4271 6.59209 42.3411 4.49059 44.2406 2.38809C42.8276 0.868088 42.8086 0.866088 41.5281 2.19659C40.8041 2.94859 40.1426 3.77159 39.3571 4.45259C36.4506 6.97159 34.4091 9.95509 34.0111 13.8886C33.9196 14.7911 33.4241 15.1171 32.4766 15.1311C29.3486 15.1766 26.2171 15.2626 23.0961 15.4681C21.5496 15.5696 20.0221 15.9666 18.4856 16.2296L18.4716 16.8041C19.4331 17.1006 20.3761 17.4901 21.3581 17.6786C26.8301 18.7276 32.3536 18.9076 37.8861 18.3741V18.3741ZM36.1381 17.0001C34.8996 18.0001 33.8761 18.0001 32.8876 17.0001H36.1381Z" fill="#EB4A4B"/>
</svg>
