<svg width="64" height="64" viewBox="0 0 64 64" fill="none" xmlns="http://www.w3.org/2000/svg">
<path fill-rule="evenodd" clip-rule="evenodd" d="M10 48.45V44.4C10 43.85 10.35 43.45 10.9 43.45H11.05C11.6 43.45 11.95 43.9 11.95 44.4V52.9C11.95 54.95 10.95 56.6 9.15005 57.65C8.30005 58.15 7.40005 58.4 6.45005 58.4H6.05005C4.00005 58.4 2.35005 57.4 1.30005 55.6C0.800049 54.75 0.550049 53.85 0.550049 52.9V52.5C0.550049 50.45 1.55005 48.8 3.35005 47.75C4.20005 47.25 5.10005 47 6.05005 47H6.45005C7.80005 47.05 9.00005 47.55 10 48.45V48.45ZM2.45005 52.7C2.45005 54.2 3.20005 55.3 4.50005 56.05C5.05005 56.35 5.60005 56.5 6.20005 56.5C7.65005 56.5 8.75005 55.8 9.50005 54.55C9.85005 53.95 10 53.35 10 52.65C10 51.35 9.40005 50.35 8.35005 49.6C7.70005 49.15 7.00005 48.9 6.25005 48.9C4.65005 48.9 3.50005 49.7 2.80005 51.15C2.55005 51.65 2.45005 52.2 2.45005 52.7V52.7ZM18.55 47.05H18.8C21 47.05 22.7 48.1 23.75 50.05C24.2 50.8 24.4 51.65 24.4 52.55V52.95C24.4 55 23.4 56.65 21.6 57.7C20.75 58.2 19.85 58.45 18.9 58.45H18.5C16.45 58.45 14.8 57.45 13.75 55.65C13.25 54.8 13 53.9 13 52.95V52.55C13 50.5 14.05 48.85 15.8 47.8C16.65 47.25 17.6 47.05 18.55 47.05ZM14.95 52.7C14.95 54.15 15.65 55.2 16.9 55.95C17.5 56.3 18.1 56.45 18.8 56.45C20.25 56.45 21.3 55.7 22.05 54.5C22.4 53.9 22.55 53.3 22.55 52.6C22.55 51.25 21.9 50.2 20.8 49.45C20.2 49.05 19.5 48.85 18.8 48.85C17.2 48.85 16.05 49.65 15.35 51.1C15.05 51.65 14.95 52.2 14.95 52.7ZM32.35 49.1C32.05 48.95 31.5001 48.9 31.2001 48.9C29.6001 48.85 28.45 49.75 27.75 51.15C27.5 51.65 27.4 52.15 27.4 52.7C27.4 54.35 28.2501 55.5 29.7001 56.2C30.2501 56.45 30.9 56.5 31.5 56.5C32 56.5 32.7501 56.2 33.2001 55.95L33.3 55.9H33.7001C34.1501 56 34.4501 56.25 34.4501 56.75V56.95C34.4501 58.1 32.3 58.4 31.5 58.45C28.65 58.65 26.5001 57.1 25.7001 54.35C25.5501 53.9 25.5 53.4 25.5 52.9V52.5C25.5 50.45 26.55 48.8 28.3 47.75C29.15 47.25 30.05 47 31 47H31.4C32.4 47 33.3501 47.2999 34.2001 47.8499L34.25 47.9L34.3 47.95C34.4 48.1 34.4501 48.25 34.4501 48.45V48.65C34.4501 49.15 34.1001 49.4 33.6501 49.5H33.5C33.25 49.5 32.6 49.2 32.35 49.1ZM38.55 50.4C39.3 49.65 40.05 48.9 40.8 48.2C41 48 41.8 47.15 42.1 47.15H42.5C42.95 47.25 43.25 47.5 43.25 48V48.2C43.25 48.5 42.9001 48.9 42.6501 49.1L41.3 50.45L39 52.8C40 53.8 41.0001 54.8 41.9501 55.8L42.75 56.65C42.85 56.75 43 56.85 43.05 57C43.15 57.15 43.2001 57.3 43.2001 57.45V57.7C43.1001 58.15 42.8 58.5 42.35 58.5H42.2001C41.9001 58.5 41.55 58.15 41.3 57.95C40.85 57.55 40.4 57.1 40 56.65L38.55 55.2V57.5C38.55 58.05 38.2001 58.45 37.6501 58.45H37.5C36.95 58.45 36.6 58 36.6 57.5V44.45C36.6 43.9 36.95 43.5 37.5 43.5H37.6501C38.2001 43.5 38.55 43.9 38.55 44.45V50.4V50.4ZM62.35 47.0999H62.55C63.1 47.0999 63.5 47.5 63.5 48.05C63.5 48.85 62.75 49.05 62.1 49.05C61.25 49.05 60.4 49.55 59.85 50.15C59.1 50.9 58.8 51.8 58.8 52.85V57.45C58.8 58 58.4501 58.4 57.9001 58.4H57.75C57.2 58.4 56.85 57.95 56.85 57.45V52.55C56.85 50.65 57.75 49.15 59.3 48.05C60.2 47.45 61.25 47.0999 62.35 47.0999V47.0999ZM48.8 56.25C49.5 56.5 50.3 56.45 51 56.35C51.35 56.2 52.3001 55.8 52.6501 55.85H52.75C52.95 55.95 53.15 56.1 53.25 56.3C53.5 56.8 53.4001 57.3 52.9001 57.6L52.75 57.7C50.95 58.75 49.0001 58.6 47.2001 57.6C46.3501 57.15 45.7001 56.45 45.2001 55.6L45.1 55.4C43.95 53.4 44.1001 51.25 45.4001 49.35C45.8501 48.7 46.4501 48.2 47.1501 47.8L47.4001 47.65C49.1001 46.65 50.9501 46.7499 52.7001 47.5999C53.6501 48.0499 54.4001 48.75 54.9501 49.65L55.05 49.8C55.45 50.45 54.9501 51.05 54.4501 51.45C53.8501 51.9 53.2501 52.45 52.7001 52.95C51.3501 54.05 50.05 55.15 48.8 56.25ZM47.1501 55.1L51.4001 51.45C51.9001 51.05 52.4001 50.6 52.9001 50.15C52.5001 49.65 51.85 49.3 51.35 49.1C50.25 48.7 49.1501 48.8 48.1501 49.4C46.8501 50.15 46.25 51.4 46.3 52.9C46.3 53.5 46.5 54.05 46.8 54.6C46.9 54.8 47.0001 54.95 47.1501 55.1" fill="#3A4D54"/>
<path fill-rule="evenodd" clip-rule="evenodd" d="M36.85 16.8501H42.5V22.6001H45.35C46.65 22.6001 48 22.3501 49.25 21.9501C49.85 21.7501 50.55 21.4501 51.15 21.1001C50.35 20.0501 49.95 18.7501 49.85 17.4501C49.7 15.7001 50.05 13.4 51.25 12.05L51.85 11.35L52.55 11.9C54.35 13.35 55.8 15.3001 56.1 17.6001C58.25 16.9501 60.75 17.1001 62.65 18.2001L63.4 18.65L63 19.4501C61.4 22.5501 58.05 23.5501 54.8 23.3501C49.9 35.5001 39.3 41.2501 26.4 41.2501C19.75 41.2501 13.65 38.7501 10.15 32.8501L10.1 32.7501L9.6 31.7001C8.4 29.1001 8.05 26.25 8.3 23.4L8.4 22.5501H13.2V16.8501H18.85V11.2H30.1V5.55005H36.85V16.8501V16.8501Z" fill="#3A4D54"/>
<path d="M55.1 18.9501C55.5 16.0001 53.3 13.7001 51.9 12.6001C50.35 14.4001 50.1 19.2001 52.55 21.2001C51.15 22.4001 48.3 23.5501 45.3 23.5501H9.20001C8.90001 26.6501 9.45001 29.5001 10.7 31.9501L11.1 32.7001C11.35 33.1501 11.65 33.5501 11.95 34.0001C13.45 34.1001 14.8 34.1501 16.05 34.1001C18.5 34.0501 20.5 33.7501 22.05 33.2501C22.3 33.1501 22.5 33.3001 22.6 33.5001C22.7 33.7501 22.55 33.9501 22.35 34.0501C22.15 34.1001 21.95 34.2001 21.7 34.2501C20.5 34.6001 19.2 34.8001 17.55 34.9001H17.25C16.6 34.9501 15.9 34.9501 15.15 34.9501C14.35 34.9501 13.6 34.9501 12.7 34.9001C15.7 38.3001 20.4 40.3001 26.3 40.3001C38.8 40.3001 49.4 34.7501 54.05 22.3501C57.4 22.7001 60.6 21.8501 62.05 19.0001C59.8 17.7001 56.8 18.1001 55.1 18.9501V18.9501Z" fill="#00AADA"/>
<path d="M55.1 18.9501C55.5 16.0001 53.3 13.7001 51.9 12.6001C50.35 14.4001 50.1 19.2001 52.55 21.2001C51.15 22.4001 48.3 23.5501 45.3 23.5501H11.3001C11.1501 28.3001 12.9 31.9001 16.05 34.0501C18.5 34.0001 20.5 33.7001 22.05 33.2001C22.3 33.1001 22.5001 33.2501 22.6001 33.4501C22.7001 33.7001 22.5501 33.9001 22.3501 34.0001C22.1501 34.0501 21.9501 34.1501 21.7001 34.2001C20.5001 34.5501 19.1001 34.8001 17.4501 34.9001L17.4 34.8501C21.65 37.0501 27.8001 37.0001 34.9 34.3001C42.8 31.2501 50.2 25.4501 55.35 18.8501C55.25 18.9001 55.2 18.9501 55.1 18.9501V18.9501Z" fill="#28B8EB"/>
<path d="M9.25 27.3C9.45 28.95 9.95 30.5001 10.7 31.9501L11.1 32.7001C11.35 33.1501 11.65 33.5501 11.95 34.0001C13.45 34.1001 14.8 34.15 16.05 34.1C18.5 34.05 20.5 33.7501 22.05 33.2501C22.3 33.1501 22.5 33.3001 22.6 33.5001C22.7 33.7501 22.55 33.95 22.35 34.05C22.15 34.1 21.95 34.2001 21.7 34.2501C20.5 34.6001 19.1 34.8501 17.45 34.9501H17.25C16.6 35.0001 15.9 35.0001 15.2 35.0001C14.4 35.0001 13.6 35.0001 12.75 34.9501C15.75 38.3501 20.5 40.35 26.4 40.35C37.1 40.35 46.4 36.3001 51.8 27.35H9.25V27.3Z" fill="#028BB8"/>
<path d="M11.65 27.3C12.3 30.2 13.8 32.5 16.05 34.05C18.5 34 20.5 33.7001 22.05 33.2001C22.3 33.1001 22.5 33.2501 22.6 33.4501C22.7 33.7001 22.55 33.9001 22.35 34.0001C22.15 34.0501 21.95 34.1501 21.7 34.2001C20.5 34.5501 19.1 34.8001 17.4 34.9001C21.65 37.1001 27.8 37.05 34.85 34.35C39.1 32.7 43.25 30.25 46.95 27.3H11.65V27.3Z" fill="#019BC6"/>
<path fill-rule="evenodd" clip-rule="evenodd" d="M14.1 17.7501H19V22.6501H14.1V17.7501ZM14.5 18.2001H14.9V22.2501H14.5V18.2001ZM15.25 18.2001H15.65V22.2501H15.25V18.2001ZM16 18.2001H16.4V22.2501H16V18.2001V18.2001ZM16.7 18.2001H17.1V22.2501H16.7V18.2001ZM17.45 18.2001H17.85V22.2501H17.45V18.2001ZM18.2 18.2001H18.6V22.2501H18.2V18.2001ZM19.75 12.1501H24.65V17.0001H19.75V12.1501ZM20.15 12.5501H20.55V16.6001H20.15V12.5501ZM20.9 12.5501H21.3V16.6001H20.9V12.5501ZM21.6 12.5501H22V16.6001H21.6V12.5501ZM22.35 12.5501H22.75V16.6001H22.35V12.5501ZM23.1 12.5501H23.5V16.6001H23.1V12.5501ZM23.85 12.5501H24.25V16.6001H23.85V12.5501Z" fill="#00ACD3"/>
<path fill-rule="evenodd" clip-rule="evenodd" d="M19.75 17.75H24.65V22.65H19.75V17.75ZM20.15 18.2H20.55V22.25H20.15V18.2ZM20.9 18.2H21.3V22.25H20.9V18.2ZM21.6 18.2H22V22.25H21.6V18.2ZM22.35 18.2H22.75V22.25H22.35V18.2ZM23.1 18.2H23.5V22.25H23.1V18.2ZM23.85 18.2H24.25V22.25H23.85V18.2Z" fill="#23C2EE"/>
<path fill-rule="evenodd" clip-rule="evenodd" d="M25.4 17.75H30.3V22.65H25.4V17.75ZM25.8 18.2H26.2V22.25H25.8V18.2ZM26.5 18.2H26.9V22.25H26.5V18.2ZM27.25 18.2H27.65V22.25H27.25V18.2ZM28 18.2H28.4V22.25H28V18.2ZM28.75 18.2H29.15V22.25H28.75V18.2ZM29.45 18.2H29.85V22.25H29.45V18.2Z" fill="#00ACD3"/>
<path fill-rule="evenodd" clip-rule="evenodd" d="M25.4 12.1501H30.3V17.0001H25.4V12.1501ZM25.8 12.5501H26.2V16.6001H25.8V12.5501ZM26.5 12.5501H26.9V16.6001H26.5V12.5501ZM27.25 12.5501H27.65V16.6001H27.25V12.5501ZM28 12.5501H28.4V16.6001H28V12.5501ZM28.75 12.5501H29.15V16.6001H28.75V12.5501ZM29.45 12.5501H29.85V16.6001H29.45V12.5501ZM31 17.7501H35.9V22.6501H31V17.7501ZM31.45 18.2001H31.85V22.2501H31.45V18.2001ZM32.15 18.2001H32.55V22.2501H32.15V18.2001ZM32.9 18.2001H33.3V22.2501H32.9V18.2001ZM33.65 18.2001H34.05V22.2501H33.65V18.2001ZM34.35 18.2001H34.75V22.2501H34.35V18.2001ZM35.1 18.2001H35.5V22.2501H35.1V18.2001Z" fill="#23C2EE"/>
<path fill-rule="evenodd" clip-rule="evenodd" d="M31 12.1501H35.9V17.0001H31V12.1501ZM31.45 12.5501H31.85V16.6001H31.45V12.5501ZM32.15 12.5501H32.55V16.6001H32.15V12.5501ZM32.9 12.5501H33.3V16.6001H32.9V12.5501ZM33.65 12.5501H34.05V16.6001H33.65V12.5501ZM34.35 12.5501H34.75V16.6001H34.35V12.5501ZM35.1 12.5501H35.5V16.6001H35.1V12.5501Z" fill="#00ACD3"/>
<path fill-rule="evenodd" clip-rule="evenodd" d="M31 6.5H35.9V11.4H31V6.5ZM31.45 6.9H31.85V11H31.45V6.9ZM32.15 6.9H32.55V11H32.15V6.9ZM32.9 6.9H33.3V11H32.9V6.9ZM33.65 6.9H34.05V11H33.65V6.9ZM34.35 6.9H34.75V11H34.35V6.9ZM35.1 6.9H35.5V11H35.1V6.9Z" fill="#23C2EE"/>
<path fill-rule="evenodd" clip-rule="evenodd" d="M36.65 17.75H41.55V22.65H36.65V17.75ZM37.05 18.2H37.45V22.25H37.05V18.2ZM37.8 18.2H38.2V22.25H37.8V18.2ZM38.55 18.2H38.95V22.25H38.55V18.2ZM39.25 18.2H39.65V22.25H39.25V18.2ZM40 18.2H40.4V22.25H40V18.2ZM40.75 18.2H41.15V22.25H40.75V18.2Z" fill="#00ACD3"/>
<path fill-rule="evenodd" clip-rule="evenodd" d="M24.2999 30.6001C25.0499 30.6001 25.65 31.2001 25.65 31.9501C25.65 32.7001 25.0499 33.3001 24.2999 33.3001C23.5499 33.3001 22.95 32.7001 22.95 31.9501C23 31.2001 23.5999 30.6001 24.2999 30.6001Z" fill="#D4EEF1"/>
<path fill-rule="evenodd" clip-rule="evenodd" d="M24.3 30.95C24.4 30.95 24.55 30.95 24.65 31C24.55 31.05 24.45 31.2 24.45 31.35C24.45 31.55 24.65 31.75 24.85 31.75C25 31.75 25.15 31.65 25.2 31.55C25.25 31.65 25.25 31.8 25.25 31.9C25.25 32.45 24.8 32.85 24.3 32.85C23.75 32.85 23.35 32.4 23.35 31.9C23.35 31.4 23.8 30.95 24.3 30.95V30.95ZM0.5 27.8H63.15C61.8 27.45 58.85 27 59.3 25.2C56.8 28.05 50.85 27.2 49.3 25.7999C47.6 28.25 37.8 27.3 37.15 25.4C35.05 27.9 28.5 27.9 26.4 25.4C25.7 27.3 15.9 28.25 14.25 25.7999C12.75 27.2 6.75 28.05 4.25 25.2C4.8 26.95 1.85 27.45 0.5 27.8" fill="#3A4D54"/>
<path d="M27.9 40.3C24.55 38.7 22.75 36.55 21.7 34.2C20.45 34.55 18.95 34.8 17.25 34.9C16.6 34.95 15.9 34.95 15.2 34.95C14.35 34.95 13.5 34.95 12.6 34.9C15.65 37.95 19.45 40.3 26.4 40.35C26.9 40.3 27.4 40.3 27.9 40.3V40.3Z" fill="#BFDBE0"/>
<path d="M22.95 36.35C22.5 35.7 22.05 34.95 21.7 34.2C20.45 34.55 18.95 34.8 17.25 34.9C18.45 35.55 20.15 36.15 22.95 36.35V36.35Z" fill="#D4EEF1"/>
</svg>
