<svg width="64" height="64" viewBox="0 0 64 64" fill="none" xmlns="http://www.w3.org/2000/svg">
<path d="M58.9441 29.5059L34.4941 5.05591C34.1596 4.72029 33.7622 4.454 33.3246 4.2723C32.887 4.0906 32.4179 3.99707 31.9441 3.99707C31.4702 3.99707 31.0011 4.0906 30.5635 4.2723C30.1259 4.454 29.7285 4.72029 29.3941 5.05591L24.3161 10.1339L30.7561 16.5739C31.5155 16.3155 32.3322 16.2756 33.1132 16.4587C33.8942 16.6419 34.6081 17.0407 35.1734 17.6098C35.7388 18.1789 36.1329 18.8954 36.3109 19.6776C36.4888 20.4598 36.4435 21.2762 36.1801 22.0339L42.3801 28.2339C43.3068 27.9155 44.3147 27.9243 45.2357 28.2589C46.1568 28.5934 46.9354 29.2334 47.4418 30.0723C47.9482 30.9112 48.1519 31.8983 48.0189 32.8692C47.8859 33.84 47.4242 34.736 46.7108 35.4077C45.9974 36.0795 45.0753 36.4865 44.0983 36.561C43.1212 36.6355 42.1481 36.3729 41.3411 35.8169C40.5341 35.261 39.942 34.4454 39.6634 33.5059C39.3848 32.5664 39.4366 31.5599 39.8101 30.6539L34.0201 24.8639V40.0979C34.8971 40.5325 35.5989 41.2544 36.0083 42.1435C36.4178 43.0326 36.5103 44.0351 36.2705 44.9841C36.0306 45.9331 35.4728 46.7713 34.6901 47.359C33.9073 47.9467 32.9469 48.2485 31.9686 48.2141C30.9904 48.1798 30.0535 47.8113 29.3139 47.17C28.5743 46.5288 28.0768 45.6535 27.9042 44.69C27.7315 43.7265 27.8942 42.733 28.3651 41.8749C28.8359 41.0167 29.5866 40.3458 30.4921 39.9739V24.5999C29.9682 24.385 29.4921 24.0686 29.0911 23.6688C28.6901 23.2691 28.3722 22.794 28.1556 22.2709C27.939 21.7478 27.8281 21.1869 27.8292 20.6208C27.8303 20.0546 27.9434 19.4942 28.1621 18.9719L21.8221 12.6279L5.05606 29.3999C4.72014 29.7344 4.4536 30.1319 4.27172 30.5697C4.08984 31.0075 3.99622 31.4769 3.99622 31.9509C3.99622 32.425 4.08984 32.8943 4.27172 33.3321C4.4536 33.7699 4.72014 34.1674 5.05606 34.5019L29.5061 58.9439C29.8405 59.2795 30.2379 59.5458 30.6755 59.7275C31.1131 59.9092 31.5822 60.0027 32.0561 60.0027C32.5299 60.0027 32.999 59.9092 33.4366 59.7275C33.8742 59.5458 34.2716 59.2795 34.6061 58.9439L58.9441 34.5999C59.28 34.2654 59.5465 33.8679 59.7284 33.4301C59.9103 32.9923 60.0039 32.523 60.0039 32.0489C60.0039 31.5749 59.9103 31.1055 59.7284 30.6677C59.5465 30.2299 59.28 29.8324 58.9441 29.4979" fill="#DD4C35"/>
<path d="M24.316 10.1338L30.756 16.5738C31.5154 16.3154 32.3322 16.2754 33.1132 16.4586C33.8942 16.6417 34.608 17.0406 35.1734 17.6097C35.7387 18.1788 36.1328 18.8953 36.3108 19.6775C36.4888 20.4596 36.4435 21.2761 36.18 22.0338L42.38 28.2338C43.3068 27.9154 44.3146 27.9242 45.2357 28.2587C46.1567 28.5933 46.9353 29.2333 47.4418 30.0722C47.9482 30.9111 48.1519 31.8982 48.0189 32.8691C47.8859 33.8399 47.4242 34.7359 46.7108 35.4076C45.9974 36.0794 45.0753 36.4864 44.0982 36.5609C43.1211 36.6353 42.148 36.3727 41.3411 35.8168C40.5341 35.2609 39.942 34.4453 39.6634 33.5058C39.3848 32.5663 39.4366 31.5597 39.81 30.6538L34.02 24.8638V40.0978C34.8971 40.5324 35.5988 41.2543 36.0083 42.1434C36.4178 43.0325 36.5103 44.035 36.2704 44.984C36.0306 45.933 35.4728 46.7711 34.6901 47.3589C33.9073 47.9466 32.9468 48.2484 31.9686 48.214C30.9903 48.1796 30.0534 47.8111 29.3139 47.1699C28.5743 46.5287 28.0768 45.6534 27.9041 44.6899C27.7315 43.7264 27.8941 42.7329 28.365 41.8747C28.8359 41.0166 29.5866 40.3457 30.492 39.9738V24.5998C29.9682 24.3849 29.4921 24.0684 29.0911 23.6687C28.6901 23.269 28.3722 22.7939 28.1556 22.2708C27.939 21.7476 27.8281 21.1868 27.8292 20.6206C27.8303 20.0544 27.9434 19.4941 28.162 18.9718L21.822 12.6278" fill="white"/>
</svg>
