<svg width="56" height="56" viewBox="0 0 56 56" fill="none" xmlns="http://www.w3.org/2000/svg">
<path d="M9.91667 0H46.0833C51.5667 0 56 4.54701 56 10.1709V45.8291C56 51.453 51.5667 56 46.0833 56H9.91667C4.43333 56 0 51.453 0 45.8291V10.1709C0 4.54701 4.43333 0 9.91667 0Z" fill="#470137"/>
<path d="M29.4299 17.5955L22.5112 29.046L29.8911 41.1904C29.9373 41.2829 29.9602 41.3754 29.9373 41.4679C29.9142 41.5605 29.8219 41.491 29.6835 41.5143H24.4024C24.0333 41.5143 23.7797 41.4911 23.6182 41.2598C23.134 40.2882 22.6266 39.3398 22.1423 38.3682C21.658 37.4199 21.1275 36.4483 20.5741 35.4536C20.0206 34.4589 19.467 33.4643 18.9135 32.4464H18.8675C18.3832 33.4411 17.8527 34.4358 17.3223 35.4305C16.7918 36.4252 16.2615 37.4198 15.7541 38.3913C15.2236 39.3629 14.6932 40.3576 14.1628 41.306C14.0706 41.5374 13.886 41.5605 13.6324 41.5605H8.55873C8.46648 41.5605 8.39729 41.6068 8.39729 41.4911C8.37423 41.3985 8.39729 41.306 8.44342 41.2366L15.6157 29.4393L8.62791 17.5724C8.55873 17.4799 8.53567 17.3874 8.58179 17.3411C8.62792 17.2718 8.72016 17.2485 8.81241 17.2485H14.0475C14.1628 17.2485 14.2781 17.2718 14.3703 17.2949C14.4626 17.3411 14.5318 17.4105 14.601 17.503C15.0392 18.4977 15.5465 19.4924 16.0769 20.4871C16.6305 21.4818 17.1609 22.4533 17.7374 23.4249C18.2909 24.3964 18.7983 25.368 19.2826 26.3627H19.3286C19.813 25.3449 20.3203 24.3502 20.8277 23.3786C21.3351 22.4071 21.8656 21.4355 22.3959 20.464C22.9264 19.4924 23.4337 18.4977 23.9411 17.5493C23.9642 17.4568 24.0102 17.3643 24.0794 17.318C24.1717 17.2718 24.264 17.2485 24.3793 17.2718H29.2453C29.3607 17.2485 29.476 17.318 29.4991 17.4336C29.5222 17.4568 29.476 17.5493 29.4299 17.5955Z" fill="#FF61F6"/>
<path fill-rule="evenodd" clip-rule="evenodd" d="M35.1261 40.959C36.6714 41.6761 38.3779 42.023 40.0845 41.9999C41.2837 41.9999 42.4599 41.8843 43.636 41.6761C44.9275 41.4447 46.1959 41.0746 47.3951 40.5657C47.5566 40.4963 47.6258 40.3575 47.6258 40.1956C47.6222 40.135 47.6187 40.0727 47.6151 40.0089C47.5951 39.6591 47.5726 39.2648 47.5335 38.8539C47.5314 38.8073 47.5293 38.761 47.5272 38.7152C47.5064 38.2606 47.4874 37.8443 47.4874 37.466V15.4441V15.3979C47.4643 15.3054 47.372 15.2129 47.2568 15.236H42.5752C42.4137 15.236 42.3445 15.3285 42.3445 15.4905V22.8002C42.2165 22.7895 42.0984 22.7838 41.9878 22.7784C41.8593 22.7721 41.7411 22.7664 41.6297 22.7539C41.422 22.7308 41.2607 22.7308 41.1453 22.7308C38.8623 22.7308 36.925 23.1703 35.3107 24.0725C33.7885 24.9052 32.5201 26.1544 31.6439 27.658C30.7906 29.1385 30.3524 30.8271 30.3753 32.5388C30.3753 34.6439 30.7906 36.4019 31.6439 37.813C32.4741 39.1778 33.6733 40.2882 35.1261 40.959ZM42.3445 27.1953V37.3735C42.0678 37.466 41.8142 37.5122 41.5143 37.4891C41.2145 37.5122 40.8917 37.5354 40.5458 37.5354C39.9 37.5354 39.2543 37.4429 38.6316 37.2347C38.0319 37.0496 37.5016 36.7258 37.0634 36.3094C36.6022 35.8468 36.2562 35.2916 36.0256 34.667C35.7489 33.9036 35.6105 33.0941 35.6335 32.2844C35.6335 31.0816 35.8873 30.0869 36.3945 29.3466C36.9019 28.6064 37.5708 28.028 38.3549 27.6349C39.162 27.2185 40.0615 27.0333 40.9609 27.0333C41.2145 27.0333 41.4682 27.0566 41.7219 27.0797C41.9294 27.1028 42.137 27.1491 42.3445 27.1953Z" fill="#FF61F6"/>
</svg>
