<svg width="64" height="64" viewBox="0 0 64 64" fill="none" xmlns="http://www.w3.org/2000/svg">
<path d="M32 28.4001C34.5681 28.4001 36.65 26.3182 36.65 23.7501C36.65 21.182 34.5681 19.1001 32 19.1001C29.4319 19.1001 27.35 21.182 27.35 23.7501C27.35 26.3182 29.4319 28.4001 32 28.4001Z" fill="#61DAFB"/>
<path d="M32 40.85C35.65 44.4 39.25 46.5 42.15 46.5C43.1 46.5 44 46.3 44.75 45.85C47.35 44.35 48.3 40.6 47.4 35.25C47.25 34.3 47.05 33.35 46.8 32.35C47.8 32.05 48.7 31.7501 49.6 31.4501C54.65 29.5001 57.45 26.8001 57.45 23.85C57.45 20.85 54.65 18.15 49.6 16.25C48.7 15.9 47.8 15.6 46.8 15.35C47.05 14.35 47.25 13.4 47.4 12.45C48.25 7.00005 47.3 3.20005 44.7 1.70005C43.95 1.25005 43.05 1.05005 42.1 1.05005C39.25 1.05005 35.6 3.15005 31.95 6.70005C28.35 3.15005 24.75 1.05005 21.85 1.05005C20.9 1.05005 20 1.25005 19.25 1.70005C16.65 3.20005 15.7 6.95005 16.6 12.3C16.75 13.25 16.95 14.2 17.2 15.2C16.2 15.5 15.3 15.8 14.4 16.1C9.34999 18.05 6.54999 20.7501 6.54999 23.7001C6.54999 26.7001 9.34999 29.4 14.4 31.3C15.3 31.65 16.2 31.9501 17.2 32.2001C16.95 33.2001 16.75 34.15 16.6 35.1C15.75 40.45 16.7 44.2501 19.25 45.7001C20 46.1501 20.9 46.35 21.85 46.35C24.75 46.45 28.35 44.35 32 40.85V40.85ZM29.2 34.1C30.1 34.15 31.05 34.1501 32 34.1501C32.95 34.1501 33.9 34.15 34.8 34.1C33.9 35.3 32.95 36.4001 32 37.4501C31.05 36.4001 30.1 35.3 29.2 34.1V34.1ZM23 28.9501C23.5 29.8001 23.95 30.6 24.5 31.4C22.95 31.2 21.5 30.95 20.1 30.65C20.55 29.3 21.05 27.9 21.65 26.5C22.05 27.3 22.5 28.1501 23 28.9501V28.9501ZM20.1 16.9C21.5 16.6 22.95 16.35 24.5 16.15C24 16.95 23.5 17.75 23 18.6C22.5 19.45 22.05 20.25 21.65 21.1C21 19.65 20.5 18.25 20.1 16.9V16.9ZM22.85 23.75C23.5 22.4 24.2 21.0501 25 19.7001C25.75 18.4001 26.6 17.1 27.45 15.8C28.95 15.7 30.45 15.65 32 15.65C33.6 15.65 35.1 15.7 36.55 15.8C37.45 17.1 38.25 18.4001 39 19.7001C39.8 21.0501 40.5 22.4 41.15 23.75C40.5 25.1 39.8 26.45 39 27.8C38.25 29.1 37.4 30.4001 36.55 31.7001C35.05 31.8001 33.55 31.85 32 31.85C30.4 31.85 28.9 31.8001 27.45 31.7001C26.55 30.4001 25.75 29.1 25 27.8C24.2 26.45 23.5 25.1 22.85 23.75V23.75ZM42.4 21.05L41.05 18.55C40.55 17.7 40.1 16.9 39.55 16.1C41.1 16.3 42.55 16.55 43.95 16.85C43.5 18.25 43 19.65 42.4 21.05ZM42.4 26.4501C43 27.8501 43.5 29.25 43.95 30.6C42.55 30.9 41.1 31.15 39.55 31.35C40.05 30.55 40.55 29.75 41.05 28.9C41.5 28.15 41.95 27.3001 42.4 26.4501ZM43.55 43.8C43.15 44.05 42.65 44.1501 42.1 44.1501C39.65 44.1501 36.6 42.1501 33.6 39.1501C35.05 37.6001 36.45 35.8501 37.85 33.9001C40.2 33.7001 42.45 33.35 44.55 32.85C44.8 33.75 44.95 34.65 45.1 35.55C45.8 39.8 45.25 42.85 43.55 43.8V43.8ZM46.15 17.4501C51.75 19.0501 55.1 21.5 55.1 23.75C55.1 25.7 52.8 27.6501 48.75 29.2001C47.95 29.5001 47.05 29.8 46.15 30.05C45.5 28 44.7 25.9 43.7 23.75C44.7 21.6 45.55 19.5001 46.15 17.4501ZM42.15 3.35005C42.7 3.35005 43.15 3.45005 43.6 3.70005C45.25 4.65005 45.85 7.65005 45.15 11.95C45 12.8 44.8 13.7 44.6 14.65C42.5 14.2 40.25 13.85 37.9 13.6C36.55 11.65 35.1 9.90005 33.65 8.35005C36.65 5.40005 39.7 3.35005 42.15 3.35005V3.35005ZM34.8 13.4C33.9 13.35 32.95 13.35 32 13.35C31.05 13.35 30.1 13.35 29.2 13.4C30.1 12.2 31.05 11.1 32 10.05C32.95 11.1 33.9 12.25 34.8 13.4ZM20.45 3.70005C20.85 3.45005 21.35 3.35005 21.9 3.35005C24.35 3.35005 27.4 5.35005 30.4 8.35005C28.95 9.90005 27.55 11.65 26.15 13.6C23.8 13.8 21.55 14.15 19.45 14.65C19.2 13.75 19.05 12.85 18.9 11.95C18.2 7.70005 18.75 4.70005 20.45 3.70005V3.70005ZM17.85 30.05C12.25 28.45 8.89999 26 8.89999 23.75C8.89999 21.8 11.2 19.85 15.25 18.3C16.05 18 16.95 17.7001 17.85 17.4501C18.5 19.5001 19.3 21.6 20.3 23.75C19.3 25.9 18.45 28.05 17.85 30.05ZM18.9 35.55C19.05 34.7 19.25 33.8 19.45 32.85C21.55 33.3 23.8 33.6501 26.15 33.9001C27.5 35.8501 28.95 37.6001 30.4 39.1501C27.4 42.1001 24.35 44.1501 21.9 44.1501C21.35 44.1501 20.9 44.05 20.45 43.8C18.75 42.85 18.2 39.8 18.9 35.55V35.55ZM16.8 56.1501C17.9 54.8001 17.95 53.3 17.35 51.8C16.75 50.3 15.5 49.6 13.95 49.55C12.1 49.5 10.2 49.55 8.34999 49.55H7.99999V62.5H9.49999V57.6H11.85C12.15 57.6 12.4 57.7001 12.55 57.9501L15.55 62.6C15.6 62.7 15.75 62.85 15.85 62.85H17.8C16.6 61 15.45 59.2501 14.25 57.4501C15.3 57.3001 16.2 56.9501 16.8 56.1501V56.1501ZM9.49999 56.05V51.1H10.05C11.2 51.1 12.4 51.0501 13.55 51.1501C14.9 51.2001 15.85 52.25 15.85 53.6C15.85 54.95 14.75 56 13.4 56.05C12.2 56.1 11 56.05 9.49999 56.05V56.05ZM28.85 56.7001C28.05 53.2001 24.85 52.3001 22.4 53.4001C20.5 54.2501 19.65 55.9001 19.6 57.9501C19.55 59.5001 20 60.9001 21.2 61.9501C22.55 63.1501 24.2 63.3 25.9 63C26.85 62.8 27.7 62.3501 28.35 61.6501C28.1 61.3001 27.85 60.9501 27.6 60.6501C26.2 61.8501 24.65 62.2501 22.95 61.4501C21.85 60.9001 21.3 59.55 21.2 58.55H28.95V57.9001C29 57.4501 28.95 57.0501 28.85 56.7001V56.7001ZM21.3 57.5C21.15 56 22.65 54.4001 24.3 54.4001C26.2 54.3501 27.4 55.5 27.45 57.5H21.3V57.5ZM36.65 53.1501C35.9 53.0001 35.1 52.95 34.35 53C33.15 53.1 32.1 53.65 31.25 54.55C31.5 54.9 31.7 55.2501 32 55.6501C32.1 55.5501 32.2 55.4501 32.3 55.4001C33.1 54.6501 34.05 54.25 35.2 54.35C36.1 54.4 36.95 54.7 37.2 55.6C37.4 56.3 37.35 57.05 37.4 57.8C37.25 57.8 37.2 57.7501 37.15 57.7001C35.95 56.7001 34.6 56.5 33.15 56.85C31.8 57.2 30.95 58.25 30.85 59.6C30.75 61.15 31.45 62.3 32.8 62.85C33.65 63.2 34.6 63.2 35.5 63C36.2 62.85 36.5 62.4501 37.5 61.9001V62.55H38.9C38.9 60.55 38.95 58.1 38.9 55.8C38.9 54.35 38.05 53.4501 36.65 53.1501ZM37.35 59.4501C37.3 59.6001 37.35 59.7501 37.35 59.9001C37.35 60.9501 37.1 61.3001 36.1 61.7001C35.4 61.9501 34.65 62.05 33.9 61.8C33.05 61.55 32.45 60.8001 32.45 59.9501C32.4 59.1001 32.95 58.25 33.8 58C34.95 57.6 36 57.85 36.95 58.55C37.25 58.8 37.45 59.0501 37.35 59.4501V59.4501ZM45.15 54.5C46.45 54.1 47.65 54.3501 48.55 55.4501L48.7 55.55C49.05 55.25 49.35 54.95 49.75 54.6C49.6 54.45 49.55 54.3501 49.45 54.2001C48 52.6501 45.15 52.4501 43.4 53.7001C40.95 55.5001 41 59 42.2 60.85C43.35 62.6 45 63.2001 46.95 62.9501C48.1 62.8001 49.05 62.25 49.8 61.3C49.45 61 49.1 60.7 48.75 60.35C48.65 60.45 48.6 60.5 48.55 60.6C47.2 62.1 44.95 61.95 43.75 60.35C43.05 59.4 42.9 58.3001 43.1 57.2001C43.2 55.9501 43.85 54.95 45.15 54.5ZM55.55 61.3C55.45 61.35 55.4 61.4001 55.4 61.4001C55 61.7001 54.6 61.75 54.15 61.6C53.7 61.4 53.65 61 53.6 60.6V54.9001C53.6 54.8001 53.6 55 53.65 54.5H55.55V53H53.55V50.5H52.05V53.2001H50.75C50.65 53.2001 50.5 53.3001 50.5 53.4001C50.45 53.7501 50.5 54 50.5 54.5H52.1V60.9001C52.1 61.7001 52.3 62.4 53 62.8C53.75 63.25 55.2 63.15 55.85 62.6C55.95 62.55 56 62.35 56 62.3C55.85 62 55.7 61.65 55.55 61.3V61.3Z" fill="#61DAFB"/>
</svg>
