<svg width="72" height="72" viewBox="0 0 72 72" fill="none" xmlns="http://www.w3.org/2000/svg">
<path d="M36 18.5845C17.0213 18.5845 1.63464 26.3818 1.63464 36C1.63464 45.6182 17.0213 53.4156 36 53.4156C54.9788 53.4156 70.3654 45.6182 70.3654 36C70.3654 26.3818 54.9788 18.5845 36 18.5845V18.5845ZM27.058 39.393C26.2378 40.1603 25.3271 40.477 24.3242 40.8032C23.3213 41.13 22.045 41.0625 20.493 41.0625H16.9757L16.0009 46.6875H11.8941L15.5588 27.5625H23.4563C25.8323 27.5625 27.5653 28.246 28.6549 29.493C29.7445 30.7401 30.0718 32.5103 29.6376 34.7451C29.4581 35.6659 29.1561 36.522 28.7297 37.2848C28.3028 38.0481 27.7453 38.7608 27.058 39.393V39.393ZM39.0454 41.0625L40.666 32.9513C40.8505 32.0018 40.783 31.2964 40.4629 30.9516C40.1423 30.6062 39.4605 30.375 38.4182 30.375H35.1613L33.0626 41.0625H28.9879L32.6526 22.5H36.7273L35.7531 27.5625H39.3829C41.6672 27.5625 43.2422 28.021 44.109 28.8175C44.9758 29.614 45.2357 30.7052 44.8892 32.4895L43.1843 41.0625H39.0454V41.0625ZM61.6911 34.7749C61.5122 35.6957 61.2096 36.5372 60.7838 37.2994C60.3574 38.0627 59.8005 38.7608 59.1126 39.393C58.2925 40.1603 57.3812 40.477 56.3788 40.8032C55.3765 41.13 54.099 41.0625 52.5471 41.0625H49.0298L48.0555 46.6875H43.9487L47.6128 27.5625H55.5109C57.8869 27.5625 59.62 28.246 60.709 29.493C61.7974 30.7401 62.1253 32.5407 61.6911 34.7749V34.7749ZM53.9545 30.375H51.1414L49.6075 38.25H52.1061C53.761 38.25 54.9951 38.0869 55.8051 37.4625C56.6162 36.8393 57.1624 35.8718 57.4465 34.4132C57.7187 33.012 57.595 31.9191 57.0752 31.3431C56.5549 30.7671 55.5148 30.375 53.9545 30.375V30.375ZM21.9004 30.375H19.0868L17.5528 38.25H20.0509C21.7063 38.25 22.9399 38.0869 23.7505 37.4625C24.561 36.8393 25.1078 35.8718 25.3913 34.4132C25.6635 33.012 25.5398 31.9191 25.02 31.3431C24.5003 30.7671 23.4608 30.375 21.9004 30.375Z" fill="#6181B6"/>
</svg>
