<svg width="64" height="64" viewBox="0 0 64 64" fill="none" xmlns="http://www.w3.org/2000/svg">
<path d="M58.02 10.0601L46.488 4.5081C45.8367 4.19409 45.1039 4.09047 44.3912 4.2116C43.6784 4.33272 43.021 4.67259 42.51 5.1841L4.76 39.6001C4.30198 40.0157 4.02781 40.5962 3.99781 41.214C3.9678 41.8317 4.18441 42.4361 4.6 42.8941C4.65 42.9481 4.7 43.0001 4.754 43.0481L7.836 45.8481C8.23872 46.2146 8.75711 46.4285 9.30113 46.4526C9.84514 46.4768 10.3804 46.3096 10.814 45.9801L56.284 11.5001C56.6274 11.2395 57.0368 11.0799 57.466 11.0393C57.8953 10.9988 58.3273 11.0788 58.7135 11.2704C59.0997 11.4621 59.4247 11.7577 59.652 12.1241C59.8793 12.4904 59.9998 12.913 60 13.3441V13.2101C60 12.5519 59.8141 11.9071 59.4638 11.3498C59.1136 10.7926 58.6131 10.3455 58.02 10.0601V10.0601Z" fill="#0065A9"/>
<path d="M58.02 53.94L46.488 59.4941C45.8366 59.8072 45.104 59.9103 44.3914 59.7892C43.6788 59.6681 43.0214 59.3288 42.51 58.8181L4.76 24.4C4.30198 23.9844 4.02781 23.4039 3.99781 22.7862C3.9678 22.1684 4.18441 21.5641 4.6 21.106C4.65 21.052 4.7 21 4.754 20.952L7.836 18.152C8.23913 17.784 8.75871 17.5691 9.30406 17.545C9.84942 17.5209 10.3859 17.689 10.82 18.02L56.284 52.5C56.6274 52.7607 57.0368 52.9202 57.466 52.9608C57.8953 53.0014 58.3273 52.9214 58.7135 52.7297C59.0997 52.5381 59.4247 52.2424 59.652 51.8761C59.8793 51.5097 59.9998 51.0872 60 50.656V50.8C59.9978 51.4565 59.811 52.0991 59.4609 52.6544C59.1107 53.2096 58.6114 53.6552 58.02 53.94V53.94Z" fill="#007ACC"/>
<path d="M46.488 59.4939C45.8366 59.807 45.104 59.9101 44.3914 59.789C43.6788 59.668 43.0215 59.3286 42.51 58.8179C42.7972 59.1013 43.1617 59.2937 43.5578 59.3709C43.9539 59.4482 44.3639 59.4068 44.7366 59.2519C45.1092 59.0971 45.4279 58.8357 45.6526 58.5006C45.8774 58.1654 45.9982 57.7714 46 57.3679V6.63188C46.0004 6.22646 45.8803 5.83006 45.6552 5.49289C45.4301 5.15573 45.1099 4.89297 44.7353 4.73791C44.3607 4.58284 43.9485 4.54245 43.551 4.62184C43.1534 4.70123 42.7883 4.89684 42.502 5.18388C43.0131 4.67256 43.6704 4.33267 44.383 4.21121C45.0957 4.08975 45.8284 4.19272 46.48 4.50588L58.01 10.0499C58.605 10.3339 59.1075 10.7803 59.4596 11.3377C59.8117 11.895 59.9991 12.5406 60 13.1999V50.7999C60.0002 51.4586 59.8142 52.104 59.4635 52.6617C59.1129 53.2194 58.6118 53.6666 58.018 53.9519L46.488 59.4939Z" fill="#1F9CF0"/>
</svg>
