<svg width="64" height="64" viewBox="0 0 64 64" fill="none" xmlns="http://www.w3.org/2000/svg">
<path d="M32.002 4C47.4649 4 60 16.536 60 32C60 47.464 47.4649 60 32.002 60C16.5391 60 4.004 47.464 4.004 32C4.004 16.536 16.5391 4 32.002 4Z" fill="#4F4F4F"/>
<path opacity="0.2" d="M20.1 20.5518C16.3632 23.8456 14.0004 28.657 14.0004 34.053C14.0004 41.3422 18.2987 47.5776 24.5005 50.4138V50.5544H24.7905C25.6576 50.9321 26.5685 51.2225 27.5005 51.4627V54.5187C22.8323 53.4945 18.6531 50.9085 15.6531 47.1878C12.6531 43.4671 11.0119 38.8343 11.0005 34.0547C11.0036 32.0224 11.3016 30.0013 11.8853 28.0547H8.78269C8.26992 30.0137 8.00709 32.0297 8.00049 34.0547C8.0028 40.1592 10.3308 46.0334 14.5107 50.482C18.6907 54.9305 24.4085 57.6191 30.5005 58.0007V47.4001C31.0173 47.4811 31.5308 47.544 32.0327 47.5554C32.5519 47.5341 33.0258 47.4706 33.5005 47.4089V57.9801C39.5891 57.5987 45.304 54.9129 49.4834 50.4686C53.6628 46.0243 55.9931 40.1551 56.0005 34.0541C55.99 32.0286 55.7232 30.0125 55.2065 28.0541H52.1069C52.6936 30.0005 52.9946 32.0217 53.0005 34.0547C52.994 38.8381 51.3551 43.476 48.3547 47.2012C45.3543 50.9264 41.1723 53.5156 36.5005 54.5407V51.4643C37.4324 51.224 38.3433 50.9337 39.2104 50.556H39.5005V50.4153C45.7023 47.5791 50.0005 41.3437 50.0005 34.0545C50.0005 28.6585 47.6377 23.8471 43.9009 20.5533H38.5279C43.5457 22.9743 47.0005 28.0899 47.0005 34.0545C47.0005 39.6255 43.9857 44.4583 39.5005 47.0459V45.1005C40.5369 44.0999 40.5948 42.5885 39.5356 41.4469L38.9439 40.8111L39.146 39.6449C39.4457 37.9088 40.1631 36.6033 41.2232 35.8653C41.7017 35.5323 42.1867 35.1516 42.3013 35.0157C42.5579 34.7114 42.5706 33.1882 42.3247 32.3113C41.6507 29.9071 38.1164 24.7867 35.5074 22.4345C34.0253 21.0983 32.8643 20.4907 31.7427 20.5593C31.0698 20.6004 30.4131 20.8854 29.7065 21.4031C28.7641 22.0938 26.3467 24.6307 25.2035 26.1321C22.7619 29.3389 21.5003 31.9295 21.5003 33.7295C21.5003 34.9228 21.6071 35.1146 22.64 35.8009C23.7825 36.5601 24.4434 37.6726 24.7904 39.4253L25.0658 40.8258L24.6322 41.2155C23.9194 41.8588 23.6201 42.5797 23.7064 43.4539C23.7657 44.0547 24.0739 44.6477 24.5003 45.0976V47.046C20.0151 44.4584 17.0003 39.6256 17.0003 34.0546C17.0003 28.09 20.4553 22.9744 25.4729 20.5534H20.0999L20.1 20.5518ZM27.5 41.5538C27.8979 41.5538 28.2794 41.7118 28.5607 41.9931C28.842 42.2744 29 42.6559 29 43.0538C29 43.4516 28.842 43.8331 28.5607 44.1144C28.2794 44.3957 27.8979 44.5538 27.5 44.5538C27.1022 44.5538 26.7207 44.3957 26.4394 44.1144C26.1581 43.8331 26.0001 43.4516 26 43.0538C26.0001 42.6559 26.1581 42.2744 26.4394 41.9931C26.7207 41.7118 27.1022 41.5538 27.5 41.5538V41.5538ZM36.5 41.5538C36.8979 41.5538 37.2794 41.7118 37.5607 41.9931C37.842 42.2745 38 42.656 38 43.0539C38 43.2509 37.9613 43.446 37.8859 43.628C37.8105 43.81 37.7 43.9754 37.5607 44.1147C37.4214 44.254 37.2561 44.3645 37.0741 44.4398C36.8921 44.5152 36.697 44.554 36.5 44.554C36.1022 44.554 35.7207 44.396 35.4394 44.1147C35.1581 43.8334 35.0001 43.4519 35 43.054C35.0001 42.6562 35.1581 42.2747 35.4394 41.9934C35.7207 41.7121 36.1022 41.554 36.5 41.554V41.5538Z" fill="black"/>
<path d="M20.1 18.5522C16.3632 21.846 14.0004 26.6574 14.0004 32.0534C14.0004 39.3426 18.2987 45.578 24.5005 48.4142V48.5549H24.7905C25.6576 48.9326 26.5685 49.2229 27.5005 49.4632V52.5192C22.8323 51.495 18.6531 48.909 15.6531 45.1883C12.6531 41.4676 11.0119 36.8348 11.0005 32.0552C11.0036 30.0229 11.3016 28.0018 11.8853 26.0552H8.78269C8.26992 28.0142 8.00709 30.0302 8.00049 32.0552C8.0028 38.1596 10.3308 44.0339 14.5107 48.4824C18.6907 52.931 24.4085 55.6196 30.5005 56.0012V45.4006C31.0173 45.4815 31.5308 45.5445 32.0327 45.5558C32.5519 45.5346 33.0258 45.4711 33.5005 45.4093V55.9805C39.5891 55.5992 45.304 52.9134 49.4834 48.4691C53.6628 44.0248 55.9931 38.1556 56.0005 32.0545C55.99 30.0291 55.7232 28.013 55.2065 26.0545H52.1069C52.6936 28.001 52.9946 30.0222 53.0005 32.0551C52.994 36.8386 51.3551 41.4765 48.3547 45.2017C45.3543 48.9269 41.1723 51.5161 36.5005 52.5411V49.4647C37.4324 49.2245 38.3433 48.9342 39.2104 48.5565H39.5005V48.4158C45.7023 45.5796 50.0005 39.3442 50.0005 32.055C50.0005 26.659 47.6377 21.8476 43.9009 18.5538H38.5279C43.5457 20.9748 47.0005 26.0904 47.0005 32.055C47.0005 37.626 43.9857 42.4588 39.5005 45.0464V43.1009C40.5369 42.1004 40.5948 40.5889 39.5356 39.4473L38.9439 38.8115L39.146 37.6454C39.4457 35.9093 40.1631 34.6038 41.2232 33.8658C41.7017 33.5327 42.1867 33.1521 42.3013 33.0161C42.5579 32.7118 42.5706 31.1886 42.3247 30.3117C41.6507 27.9075 38.1164 22.7871 35.5074 20.4349C34.0253 19.0988 32.8643 18.4912 31.7427 18.5598C31.0698 18.6009 30.4131 18.8859 29.7065 19.4036C28.7641 20.0943 26.3467 22.6312 25.2035 24.1326C22.7619 27.3394 21.5003 29.93 21.5003 31.73C21.5003 32.9233 21.6071 33.1151 22.64 33.8014C23.7825 34.5606 24.4434 35.6731 24.7904 37.4258L25.0658 38.8263L24.6322 39.216C23.9194 39.8592 23.6201 40.5802 23.7064 41.4544C23.7657 42.0551 24.0739 42.6482 24.5003 43.0981V45.0465C20.0151 42.4589 17.0003 37.6261 17.0003 32.0551C17.0003 26.0905 20.4553 20.9749 25.4729 18.5539H20.0999L20.1 18.5522ZM27.5 39.5542C27.8979 39.5542 28.2794 39.7123 28.5607 39.9936C28.842 40.2749 29 40.6564 29 41.0542C29 41.4521 28.842 41.8336 28.5607 42.1149C28.2794 42.3962 27.8979 42.5542 27.5 42.5542C27.1022 42.5542 26.7207 42.3962 26.4394 42.1149C26.1581 41.8336 26.0001 41.4521 26 41.0542C26.0001 40.6564 26.1581 40.2749 26.4394 39.9936C26.7207 39.7123 27.1022 39.5542 27.5 39.5542V39.5542ZM36.5 39.5542C36.697 39.5542 36.8921 39.593 37.0741 39.6684C37.2561 39.7438 37.4214 39.8543 37.5607 39.9936C37.7 40.1329 37.8105 40.2983 37.8859 40.4803C37.9613 40.6623 38 40.8574 38 41.0544C38 41.4522 37.842 41.8338 37.5607 42.1151C37.2794 42.3965 36.8979 42.5545 36.5 42.5545C36.1022 42.5545 35.7207 42.3965 35.4394 42.1152C35.1581 41.8339 35.0001 41.4524 35 41.0545C35.0001 40.6567 35.1581 40.2752 35.4394 39.9939C35.7207 39.7126 36.1022 39.5545 36.5 39.5545V39.5542Z" fill="#3FB2AB"/>
<path opacity="0.2" d="M4.05463 33C4.04303 33.334 4.00403 33.662 4.00403 34C4.00403 49.512 16.4894 62 32 62C47.51 62 59.996 49.512 59.996 34C59.996 33.662 59.958 33.334 59.946 33C59.418 48.042 47.172 60 32 60C16.827 60 4.58203 48.042 4.05403 33H4.05463Z" fill="black"/>
<path opacity="0.1" d="M32 4C16.4894 4 4.00403 16.488 4.00403 32C4.00403 32.338 4.04303 32.666 4.05463 33C4.58223 17.9588 16.827 6 32.0006 6C47.1726 6 59.4186 17.9588 59.9466 33C59.9586 32.666 59.9966 32.338 59.9966 32C59.9966 16.488 47.5106 4 32.0006 4H32Z" fill="white"/>
</svg>
