<svg width="64" height="64" viewBox="0 0 64 64" fill="none" xmlns="http://www.w3.org/2000/svg">
<g clip-path="url(#clip0)">
<path d="M16.0955 48.9764C15.9112 48.9764 15.7276 49.0292 15.5682 49.1346C15.4087 49.24 15.2625 49.4218 15.2625 49.6551C15.2625 49.6858 15.2444 49.7547 15.3045 49.8748L15.2889 49.8367L18.494 60.2352C18.5513 60.4303 18.6891 60.5794 18.8436 60.6649C18.9981 60.7505 19.1681 60.7831 19.3328 60.7831C19.6831 60.7831 20.0676 60.616 20.1854 60.2392V60.2382L23.3875 49.8007V49.7626C23.3875 49.8152 23.4032 49.7848 23.4032 49.6708C23.4032 49.4335 23.2516 49.259 23.0897 49.1493C22.9278 49.0396 22.7372 48.9764 22.5389 48.9764C22.2944 48.9764 22.0131 49.1251 21.9188 49.4081L21.9168 49.411L19.3319 58.038L16.7371 49.4265C16.6987 49.2726 16.595 49.1437 16.4744 49.072C16.3538 49.0003 16.2223 48.9763 16.0955 48.9763L16.0955 48.9764ZM41.623 49.5126C41.1128 49.5126 40.6826 49.9034 40.6826 50.3925C40.6826 50.8815 41.1061 51.286 41.623 51.286C42.1301 51.286 42.5332 50.8739 42.5332 50.3925C42.5332 49.911 42.1232 49.5126 41.623 49.5126ZM34.1085 52.8417C32.3643 52.8417 30.9279 54.2374 30.9279 55.9149V57.6337C30.9279 58.5732 31.3022 59.3785 31.9376 59.9345C32.573 60.4904 33.4599 60.7978 34.4767 60.7978C35.2277 60.7978 35.8398 60.6296 36.2775 60.4013C36.4963 60.2871 36.6721 60.159 36.8019 60.0194C36.9316 59.8798 37.0275 59.727 37.0275 59.536C37.0275 59.3607 36.9599 59.2087 36.8507 59.0722C36.7415 58.9357 36.5695 58.8104 36.3477 58.8104C36.1876 58.8104 36.0647 58.8778 35.9581 58.9433C35.8515 59.0087 35.7514 59.081 35.6309 59.1503C35.39 59.289 35.0707 59.4237 34.5069 59.4237C33.8792 59.4237 33.3558 59.2447 32.9952 58.9442C32.6347 58.6438 32.4249 58.2266 32.4249 57.6796V57.3612H35.6427C35.9859 57.3612 36.3674 57.3617 36.6974 57.1513C37.0274 56.9406 37.2276 56.5219 37.2276 55.8847C37.2276 54.1201 35.7553 52.8417 34.1085 52.8417L34.1085 52.8417ZM46.2015 52.8417C45.2744 52.8417 44.5926 53.1416 44.1546 53.5927C43.7166 54.0436 43.5277 54.6304 43.5277 55.1786C43.5277 55.8773 43.8099 56.3781 44.2142 56.6991C44.6184 57.0202 45.1214 57.1817 45.5999 57.3261C46.0785 57.4704 46.5365 57.5985 46.8441 57.788C47.1516 57.9774 47.3167 58.1824 47.3167 58.6151C47.3167 58.8474 47.2469 59.0323 47.0579 59.1835C46.8689 59.3347 46.5334 59.454 45.9866 59.454C45.3398 59.454 44.9783 59.2944 44.7151 59.1317C44.5836 59.0503 44.4776 58.9659 44.3685 58.8905C44.2593 58.8151 44.1356 58.7333 43.9622 58.7333C43.7535 58.7333 43.5996 58.8618 43.5061 58.995C43.4127 59.1281 43.3587 59.2794 43.3587 59.4432C43.3587 59.6458 43.4573 59.8239 43.597 59.9784C43.7367 60.1329 43.9257 60.2704 44.1575 60.3905C44.6211 60.6307 45.2596 60.7977 46.0179 60.7977C46.8411 60.7977 47.5182 60.5968 47.9974 60.2069C48.4765 59.817 48.7376 59.2375 48.7376 58.5692C48.7376 57.8144 48.4632 57.2717 48.0589 56.913C47.6546 56.5543 47.1441 56.3694 46.6585 56.2206C46.1729 56.0718 45.7057 55.9559 45.3929 55.7928C45.0802 55.6297 44.933 55.4793 44.933 55.1327C44.933 54.9452 45.008 54.7094 45.1986 54.5233C45.3892 54.3372 45.7002 54.1864 46.2171 54.1864C46.6302 54.1864 46.9372 54.2813 47.1829 54.3817C47.3058 54.432 47.4126 54.4844 47.514 54.5282C47.6153 54.572 47.7088 54.6151 47.8431 54.6151C48.0856 54.6151 48.2518 54.4551 48.3509 54.3065C48.45 54.1579 48.5071 54.0114 48.5071 53.8436C48.5071 53.6335 48.3764 53.4846 48.2318 53.3729C48.0871 53.2612 47.9058 53.1726 47.6956 53.0956C47.2753 52.9416 46.7393 52.8417 46.2015 52.8417L46.2015 52.8417ZM24.273 52.9344C23.8675 52.9344 23.5172 53.1887 23.5172 53.5672V57.6639C23.5172 59.3258 24.9301 60.7977 26.6822 60.7977C28.4048 60.7977 29.8473 59.3431 29.8473 57.6639V53.5526C29.8473 53.3632 29.743 53.1988 29.6061 53.0946C29.4691 52.9904 29.2951 52.9345 29.1061 52.9345C28.9171 52.9345 28.7421 52.9897 28.6022 53.0917C28.4623 53.1937 28.3502 53.3568 28.3502 53.5526V57.6639C28.3502 58.5351 27.5911 59.3778 26.6823 59.3778C25.7584 59.3778 25.0143 58.5201 25.0143 57.6639V53.5672C25.0143 53.371 24.9071 53.2197 24.7741 53.1121C24.641 53.0046 24.4672 52.9344 24.2731 52.9344L24.273 52.9344ZM41.6235 52.9344C41.4339 52.9344 41.2583 52.9832 41.1186 53.0887C40.979 53.1942 40.8833 53.3678 40.8833 53.5526V61.1006C40.8833 61.667 40.8436 62.1421 40.7192 62.4297C40.5948 62.7173 40.4481 62.8447 40.0288 62.8447C39.6583 62.8447 39.3491 63.1684 39.3491 63.5557C39.3491 63.7166 39.401 63.8933 39.5327 64.0313C39.6643 64.1692 39.8687 64.25 40.1049 64.25C40.9021 64.25 41.512 63.8965 41.8754 63.3223C42.2389 62.748 42.3803 61.9798 42.3803 61.1006V53.5526C42.3803 53.3559 42.2679 53.1848 42.1254 53.0838C41.9829 52.9829 41.8078 52.9344 41.6235 52.9344L41.6235 52.9344ZM34.093 54.1708C35.0887 54.1708 35.761 55.0043 35.761 55.8534C35.761 55.9459 35.751 56.0065 35.7414 56.034C35.7319 56.0616 35.7328 56.058 35.719 56.0672C35.6914 56.0856 35.5377 56.1249 35.2434 56.1249H32.425V55.7918C32.425 54.9032 33.1673 54.1707 34.093 54.1707L34.093 54.1708ZM38.8489 58.8563C38.305 58.8563 37.8928 59.3064 37.8928 59.827C37.8928 60.3272 38.2988 60.7831 38.8489 60.7831C39.3699 60.7831 39.7893 60.3411 39.7893 59.827C39.7893 59.2935 39.3629 58.8563 38.8489 58.8563Z" fill="#35495E"/>
<path d="M15.7019 0.196777L25.5664 0.200508L32.0147 10.9039L38.4402 0.201366L48.2962 0.19875L32.064 28.3552L15.7019 0.196777Z" fill="#35495E"/>
<path d="M4.94354 0.272107L15.6932 0.19873L32.0545 28.3565L48.2875 0.200446L59.056 0.211725L32.0528 46.5538L4.94354 0.272107Z" fill="#41B883"/>
</g>
<defs>
<clipPath id="clip0">
<rect width="64" height="64" fill="white"/>
</clipPath>
</defs>
</svg>
