<svg width="72" height="72" viewBox="0 0 72 72" fill="none" xmlns="http://www.w3.org/2000/svg">
<path d="M1.12556 50.8827H3.43631V41.7573L7.01381 49.7127C7.43569 50.6757 8.01337 51.016 9.14681 51.016C10.2802 51.016 10.836 50.6757 11.2579 49.7127L14.8354 41.7573V50.8827H17.1461V41.7724C17.1461 40.8837 16.7906 40.4534 16.0571 40.2318C14.3016 39.6839 13.1237 40.1581 12.5904 41.3433L9.07988 49.1946L5.68069 41.3427C5.16937 40.1581 3.96956 39.6839 2.214 40.2312C1.4805 40.4534 1.125 40.8831 1.125 41.7719V50.8827H1.12556ZM19.0682 43.4543H21.3784V48.4819C21.357 48.7548 21.4661 49.396 22.7317 49.4163C23.3775 49.4264 27.7166 49.4163 27.7571 49.4163V43.4296H30.0729C30.0836 43.4296 30.0707 51.5937 30.0707 51.6274C30.0831 53.6412 27.5726 54.0783 26.415 54.112H19.1182V52.5573C19.1306 52.5573 26.4099 52.5589 26.4279 52.5567C27.9158 52.3998 27.7397 51.6606 27.7391 51.412V50.8056H22.8279C20.5431 50.7848 19.0873 49.7875 19.0688 48.64C19.0676 48.5348 19.1188 43.5049 19.0682 43.4543V43.4543Z" fill="#00618A"/>
<path d="M31.8544 50.8826H38.4986C39.2766 50.8826 40.0326 50.72 40.6322 50.4388C41.6317 49.9798 42.1206 49.3577 42.1206 48.542V46.8534C42.1206 46.1869 41.5654 45.5642 40.4764 45.1502C39.8987 44.9274 39.1871 44.8099 38.4981 44.8099H35.6979C34.7647 44.8099 34.3204 44.5286 34.2096 43.9065C34.1876 43.8322 34.1876 43.7732 34.1876 43.6989V42.647C34.1876 42.588 34.1876 42.5284 34.2096 42.4547C34.3204 41.9805 34.5651 41.8472 35.3874 41.7729L35.6096 41.7583H42.2094V40.2182H35.721C34.7878 40.2182 34.299 40.2772 33.8546 40.4105C32.4771 40.8403 31.8763 41.5215 31.8763 42.7067V44.0544C31.8763 45.0917 33.0547 45.9804 35.0319 46.188C35.2547 46.202 35.4763 46.2178 35.6985 46.2178H38.0987C38.1876 46.2178 38.2764 46.2178 38.3434 46.2319C39.0769 46.2909 39.3874 46.4248 39.6101 46.6909C39.7434 46.8242 39.7873 46.958 39.7873 47.1054V48.4537C39.7873 48.6163 39.6765 48.8239 39.4543 49.0016C39.2546 49.1794 38.9211 49.298 38.4767 49.3279L38.232 49.3425H31.8544V50.8826V50.8826ZM56.5374 48.2017C56.5374 49.7863 57.7153 50.675 60.0924 50.8534C60.3146 50.868 60.5368 50.8826 60.759 50.8826H66.7811V49.3425H60.7151C59.3595 49.3425 58.8487 49.0016 58.8487 48.1865V40.217H56.538V48.2017H56.5374ZM43.5954 48.2816V42.7888C43.5954 41.3938 44.5753 40.5472 46.5126 40.28C46.7128 40.2502 46.9361 40.2356 47.1358 40.2356H51.5227C51.7455 40.2356 51.9457 40.2502 52.1679 40.28C54.1052 40.5472 55.0856 41.3932 55.0856 42.7888V48.2816C55.0856 49.4145 54.6694 50.0197 53.7103 50.4146L55.9873 52.4694H53.3036L51.462 50.8067L49.608 50.9242H47.1358C46.7128 50.9242 46.2679 50.8652 45.7779 50.7313C44.3081 50.3308 43.5954 49.5585 43.5954 48.2816V48.2816ZM46.0896 48.1483C46.0896 48.2225 46.1115 48.2973 46.134 48.3862C46.2673 49.0247 46.8692 49.3807 47.7816 49.3807H49.8808L47.9526 47.6398H50.6362L52.3176 49.1585C52.6281 48.9926 52.8317 48.7406 52.9031 48.416C52.9251 48.3418 52.9251 48.2675 52.9251 48.1933V42.9238C52.9251 42.8647 52.9251 42.7899 52.9031 42.7157C52.7692 42.1217 52.1679 41.7808 51.2775 41.7808H47.781C46.7572 41.7808 46.089 42.2263 46.089 42.9238V48.1483H46.0896Z" fill="#E48E00"/>
<path d="M68.814 37.6604C67.3936 37.6216 66.3086 37.7538 65.3805 38.1447C65.1166 38.2561 64.6965 38.2589 64.6537 38.5891C64.7983 38.7415 64.8208 38.9682 64.9361 39.155C65.1577 39.5133 65.5318 39.9937 65.8653 40.2451C66.2293 40.5202 66.605 40.8149 66.9965 41.0534C67.6912 41.4775 68.4675 41.7194 69.1374 42.1435C69.5317 42.3944 69.9232 42.7094 70.3085 42.9923C70.4992 43.1313 70.6263 43.349 70.8744 43.4362V43.3962C70.7445 43.2308 70.7107 43.0036 70.5915 42.8303L70.0661 42.305C69.5525 41.6232 68.9011 41.0253 68.2076 40.528C67.6552 40.1315 66.4188 39.5954 66.1882 38.9525L66.1477 38.9125C66.5392 38.8681 66.9982 38.7263 67.3593 38.6296C67.9668 38.4665 68.5096 38.5087 69.1368 38.3467L69.9851 38.1037V37.9428C69.6684 37.6177 69.4417 37.1868 69.0963 36.8926C68.1924 36.1225 67.2046 35.353 66.1882 34.7107C65.6246 34.3552 64.9276 34.124 64.3297 33.8225C64.1294 33.7207 63.7762 33.6683 63.6429 33.499C63.3284 33.0991 63.158 32.5923 62.9156 32.126C62.4093 31.15 61.9109 30.0835 61.4615 29.0558C61.1555 28.3555 60.9553 27.6648 60.5733 27.0365C58.739 24.0209 56.7646 22.2007 53.7063 20.4119C53.0555 20.0311 52.2719 19.8815 51.4445 19.6852L50.1114 19.6042C49.8408 19.4911 49.5584 19.1592 49.3036 18.9983C48.29 18.3582 45.6913 16.966 44.9409 18.797C44.4673 19.9523 45.6496 21.0796 46.0721 21.6652C46.3685 22.0758 46.7488 22.5359 46.9608 22.9977C47.1003 23.3015 47.1239 23.6058 47.2438 23.927C47.5368 24.7178 47.7928 25.579 48.1724 26.3097C48.3643 26.6798 48.5763 27.0697 48.8188 27.4004C48.9673 27.6029 49.2226 27.6929 49.2626 28.0062C49.0134 28.355 48.9988 28.8972 48.8587 29.3388C48.2276 31.3295 48.4655 33.8039 49.3841 35.2771C49.6659 35.7299 50.3296 36.6997 51.242 36.3273C52.0402 36.0022 51.8625 34.9947 52.0908 34.1054C52.1426 33.9046 52.1105 33.7561 52.2118 33.6211V33.6616L52.9391 35.1157C53.4774 35.9825 54.4319 36.8875 55.2414 37.499C55.661 37.8157 55.9918 38.3641 56.534 38.5492V38.5081H56.4941C56.3883 38.3444 56.2246 38.2769 56.0896 38.1447C55.7735 37.8348 55.422 37.45 55.161 37.0945C54.4246 36.0955 53.7744 35.0015 53.1815 33.863C52.8986 33.3196 52.6528 32.72 52.4143 32.1665C52.322 31.9533 52.3231 31.6304 52.1319 31.5207C51.8698 31.9257 51.4856 32.2537 51.2831 32.7323C50.9602 33.4973 50.9186 34.4305 50.7988 35.398L50.7178 35.438C50.1547 35.3024 49.9573 34.723 49.748 34.2263C49.2193 32.9703 49.1208 30.947 49.5866 29.5008C49.7069 29.1262 50.2509 27.9477 50.0304 27.6018C49.9252 27.257 49.5781 27.0578 49.3846 26.7935C49.1444 26.4678 48.9043 26.0392 48.7383 25.6623C48.3052 24.683 48.1033 23.5833 47.6482 22.5927C47.4299 22.1191 47.0621 21.6404 46.7594 21.2197C46.4248 20.7528 46.0496 20.4097 45.7897 19.846C45.6974 19.6458 45.572 19.3246 45.7087 19.1187C45.752 18.9798 45.8144 18.9218 45.9517 18.8763C46.1857 18.6957 46.8382 18.9365 47.0823 19.0377C47.7303 19.3072 48.2709 19.5631 48.8199 19.9265C49.0831 20.1014 49.3492 20.4389 49.6681 20.5323H50.0315C50.6002 20.6628 51.2375 20.5722 51.7685 20.7337C52.7079 21.0194 53.5494 21.4632 54.3133 21.9458C56.6414 23.4162 58.5444 25.5087 59.8471 28.0051C60.0564 28.4073 60.1475 28.7903 60.3314 29.2167C60.7038 30.0762 61.173 30.961 61.5431 31.802C61.9126 32.6407 62.2732 33.4872 62.7958 34.1853C63.0703 34.552 64.1311 34.7489 64.6132 34.9525C64.9513 35.0954 65.5048 35.2445 65.8248 35.4368C66.4363 35.8058 67.0291 36.2452 67.6023 36.649C67.8886 36.8527 68.7701 37.2953 68.814 37.6604V37.6604ZM50.7583 22.271C50.4624 22.2653 50.2526 22.3036 50.0309 22.352V22.3919H50.0714C50.2126 22.6827 50.4618 22.8695 50.6368 23.1192L51.0412 23.9675L51.0811 23.9275C51.3314 23.7515 51.4456 23.4697 51.4445 23.0388C51.3438 22.933 51.3292 22.8008 51.2426 22.6754C51.1278 22.5067 50.9039 22.4122 50.7583 22.271V22.271Z" fill="#00618A"/>
</svg>
