<svg width="64" height="32" viewBox="0 0 64 32" fill="none" xmlns="http://www.w3.org/2000/svg">
<path d="M58.872 31.8321C58.7171 31.8321 58.5633 31.7602 58.4277 31.6203L57.0128 30.1381C56.8013 29.9292 56.9044 29.8545 56.9743 29.812C57.2562 29.6381 57.3134 29.5974 57.614 29.2968C57.6455 29.2656 57.6866 29.277 57.7192 29.311L58.8057 30.4538C58.8453 30.4926 58.9013 30.4926 58.9371 30.4538L63.175 26.1235C63.2151 26.0838 63.2402 26.0035 63.2402 25.9203V17.2615C63.2402 17.1764 63.2151 17.0979 63.1745 17.0545L58.9382 12.7279C58.8987 12.6882 58.8469 12.6882 58.8074 12.7279L54.5715 17.0554C54.531 17.0979 54.5048 17.1792 54.5048 17.2615V25.9203C54.5048 26.0035 54.531 26.0819 54.5715 26.1207L55.7323 27.3089C56.3624 27.8657 56.7484 27.2096 56.7484 26.5498V17.9997C56.7484 17.8797 56.8034 17.7842 56.8713 17.7842H57.4089C57.4757 17.7842 57.5312 17.8797 57.5312 17.9997V26.5498C57.5312 28.0377 57.0736 28.8913 56.2764 28.8913C56.0314 28.8913 55.8386 28.8913 55.3004 28.4224L54.1892 27.29C53.9143 27.0083 53.745 26.4827 53.745 25.9212V17.2624C53.745 16.7 53.9143 16.1753 54.1892 15.8955L58.4272 11.5595C58.6952 11.292 59.0514 11.292 59.3173 11.5595L63.5552 15.8955C63.8297 16.1763 64 16.7009 64 17.2624V25.9212C64 26.4837 63.8297 27.0064 63.5552 27.29L59.3173 31.6213C59.1827 31.7602 59.0295 31.8321 58.872 31.8321V31.8321ZM60.1817 25.8664C58.3263 25.8664 57.9381 24.3587 57.9381 23.0948C57.9381 22.9757 57.9931 22.8783 58.0609 22.8783H58.6087C58.6701 22.8783 58.7208 22.9559 58.7305 23.0617C58.8127 24.0496 59.0599 24.5477 60.1817 24.5477C61.074 24.5477 61.4541 24.1904 61.4541 23.351C61.4541 22.867 61.3463 22.5087 59.9591 22.2677C58.7993 22.0645 58.0823 21.6117 58.0823 19.9678C58.0823 18.4544 58.8031 17.5507 60.0109 17.5507C61.3687 17.5507 62.0404 18.3854 62.1253 20.1758C62.1285 20.2363 62.1162 20.2958 62.0933 20.3422C62.0698 20.3847 62.0377 20.4112 62.0036 20.4112H61.4531C61.3959 20.4112 61.3457 20.3403 61.334 20.2419C61.2016 19.2021 60.8812 18.8703 60.0103 18.8703C59.0359 18.8703 58.9227 19.4725 58.9227 19.9215C58.9227 20.4669 59.0562 20.6257 60.3724 20.9339C61.6746 21.2392 62.2935 21.6703 62.2935 23.2914C62.294 24.9296 61.5241 25.8664 60.1817 25.8664" fill="#83CD29"/>
<path d="M50.1457 20.1874C50.3128 20.0145 50.4159 19.6987 50.4159 19.3556V17.1304C50.4159 16.7882 50.3134 16.4725 50.1457 16.2995L45.6798 11.7092C45.5116 11.5362 45.3044 11.5353 45.1357 11.7073L40.642 16.3004C40.4743 16.4725 40.3707 16.7891 40.3707 17.1323V26.3167C40.3707 26.6617 40.4754 26.9812 40.6452 27.1523L45.1106 31.6566C45.275 31.8239 45.4769 31.8248 45.6429 31.6622L48.3436 29.0041C48.4296 28.919 48.483 28.7602 48.4835 28.5882C48.4841 28.4142 48.4317 28.2535 48.3468 28.1675L43.8254 23.5734C43.7405 23.4874 43.6887 23.3286 43.6887 23.1575V20.2782C43.6887 20.1061 43.7405 19.9483 43.8243 19.8632L45.2323 18.4264C45.3156 18.3404 45.4192 18.3404 45.503 18.4264L46.911 19.8632C46.9954 19.9492 47.0472 20.1071 47.0472 20.2782V22.5431C47.0472 22.7161 47.099 22.8749 47.1828 22.96C47.2672 23.046 47.3708 23.046 47.4551 22.959L50.1457 20.1874" fill="#404137"/>
<path d="M45.3412 19.7563C45.3738 19.7241 45.4133 19.7241 45.4454 19.7563L46.3077 20.6382C46.3397 20.6713 46.3595 20.7328 46.3595 20.798V22.5609C46.3595 22.6271 46.3397 22.6876 46.3077 22.7207L45.4454 23.6017C45.4133 23.6348 45.3733 23.6348 45.3412 23.6017L44.4795 22.7207C44.4469 22.6876 44.4271 22.6271 44.4271 22.5609V20.798C44.4271 20.7328 44.4469 20.6713 44.4795 20.6382L45.3412 19.7563Z" fill="#83CD29"/>
<path d="M33.6472 23.4239C33.6472 23.509 33.6216 23.5884 33.5794 23.6319L32.0363 25.2067C31.9941 25.2502 31.9423 25.2502 31.9007 25.2067L30.3576 23.6319C30.3154 23.5884 30.2897 23.509 30.2897 23.4239V20.2686C30.2897 20.1835 30.3159 20.1031 30.3576 20.0597L31.9007 18.4829C31.9428 18.4385 31.9946 18.4385 32.0368 18.4829L33.5805 20.0597C33.6221 20.1031 33.6477 20.1835 33.6477 20.2686V23.4239H33.6472ZM34.0642 0.0602934C33.9804 -0.0219462 33.8779 -0.0200552 33.7946 0.0659656C33.7118 0.152932 33.6606 0.309848 33.6606 0.479999V12.6883C33.6606 12.8074 33.6242 12.919 33.566 12.9795C33.5073 13.039 33.4347 13.039 33.376 12.9795L32.2504 11.831C32.0827 11.6599 31.8761 11.6599 31.7084 11.831L27.2137 16.4231C27.0455 16.5952 26.9419 16.9128 26.9419 17.2559V26.4431C26.9419 26.7863 27.0455 27.103 27.2131 27.2759L31.7079 31.871C31.8756 32.043 32.0827 32.043 32.2509 31.871L36.7468 27.2759C36.9144 27.103 37.018 26.7863 37.018 26.4431V3.54177C37.018 3.19391 36.9112 2.87251 36.7398 2.70236L34.0642 0.0602934" fill="#404137"/>
<path d="M18.2455 11.6578C18.4132 11.4858 18.6203 11.4858 18.788 11.6578L23.2828 16.2491C23.4504 16.4211 23.554 16.7387 23.554 17.0819V26.2719C23.554 26.6151 23.4504 26.9327 23.2828 27.1047L18.7885 31.6997C18.6209 31.8708 18.4137 31.8708 18.2455 31.6997L13.7523 27.1047C13.5847 26.9327 13.4811 26.6151 13.4811 26.2719V17.0809C13.4811 16.7387 13.5847 16.4211 13.7523 16.2491L18.2455 11.6578" fill="#83CD29"/>
<path d="M10.0718 17.0057C10.0718 16.6597 9.96933 16.3421 9.8006 16.171L5.30744 11.593C5.23055 11.5136 5.14565 11.473 5.05968 11.4673H5.01323C4.9278 11.473 4.84237 11.5136 4.76548 11.593L0.271779 16.171C0.104654 16.3421 0 16.6597 0 17.0057L0.00961112 29.3322C0.00961112 29.5042 0.0603362 29.664 0.145234 29.7472C0.22853 29.836 0.331581 29.836 0.414877 29.7472L3.08461 27.0399C3.25334 26.8622 3.35639 26.5493 3.35639 26.2061V20.4475C3.35639 20.1034 3.45891 19.7867 3.6271 19.6147L4.76441 18.4558C4.84878 18.3679 4.94168 18.3263 5.03566 18.3263C5.12856 18.3263 5.22361 18.3679 5.30637 18.4558L6.44261 19.6147C6.6108 19.7867 6.71439 20.1034 6.71439 20.4475V26.2061C6.71439 26.5493 6.81851 26.8641 6.98617 27.0399L9.6559 29.7472C9.73973 29.836 9.84439 29.836 9.92715 29.7472C10.0099 29.663 10.0617 29.5033 10.0617 29.3322L10.0718 17.0057Z" fill="#404137"/>
</svg>
