<svg width="64" height="64" viewBox="0 0 64 64" fill="none" xmlns="http://www.w3.org/2000/svg">
<path d="M0 32C0 14.3269 14.3269 0 32 0C49.6731 0 64 14.3269 64 32C64 49.6731 49.6731 64 32 64C14.3269 64 0 49.6731 0 32Z" fill="#333333"/>
<path d="M25.6 51.1999C29.1347 51.1999 32 48.3346 32 44.7999V38.3999H25.6C22.0653 38.3999 19.2 41.2654 19.2 44.7999C19.2 48.3346 22.0653 51.1999 25.6 51.1999Z" fill="#0ACF83"/>
<path d="M19.2 32.0001C19.2 28.4654 22.0653 25.6001 25.6 25.6001H32V38.4001H25.6C22.0653 38.4001 19.2 35.5346 19.2 32.0001Z" fill="#A259FF"/>
<path d="M19.2 19.2001C19.2 15.6654 22.0653 12.8 25.6 12.8H32V25.6001H25.6C22.0653 25.6001 19.2 22.7346 19.2 19.2001Z" fill="#F24E1E"/>
<path d="M32 12.8H38.4C41.9347 12.8 44.8 15.6654 44.8 19.2001C44.8 22.7346 41.9347 25.6001 38.4 25.6001H32V12.8Z" fill="#FF7262"/>
<path d="M44.8 32.0001C44.8 35.5346 41.9347 38.4001 38.4 38.4001C34.8653 38.4001 32 35.5346 32 32.0001C32 28.4654 34.8653 25.6001 38.4 25.6001C41.9347 25.6001 44.8 28.4654 44.8 32.0001Z" fill="#1ABCFE"/>
</svg>
