<svg width="56" height="56" viewBox="0 0 56 56" fill="none" xmlns="http://www.w3.org/2000/svg">
<path d="M52.5 3.5H3.5V52.5H52.5V3.5Z" fill="#F5DE19"/>
<path d="M36.4158 41.7812C36.8332 42.6292 37.4819 43.3421 38.2869 43.8374C39.0919 44.3328 40.0206 44.5907 40.9658 44.5812C42.8733 44.5812 44.093 43.6275 44.093 42.3062C44.093 40.7312 42.84 40.1677 40.74 39.249L39.5885 38.7555C36.2635 37.3397 34.0585 35.567 34.0585 31.8185C34.0585 28.3657 36.6835 25.7355 40.8013 25.7355C42.1342 25.6392 43.4661 25.9375 44.6306 26.5932C45.7951 27.249 46.7408 28.233 47.3497 29.4227L43.75 31.724C43.5155 31.1341 43.1073 30.6294 42.5794 30.2768C42.0515 29.9243 41.429 29.7405 40.7943 29.75C40.5173 29.7222 40.2377 29.7525 39.9731 29.8388C39.7085 29.9252 39.4648 30.0656 39.2576 30.2514C39.0503 30.4371 38.884 30.6639 38.7692 30.9175C38.6544 31.171 38.5937 31.4457 38.591 31.724C38.591 33.1047 39.4468 33.6647 41.4225 34.524L42.574 35.0175C46.487 36.6957 48.699 38.4055 48.699 42.2502C48.699 46.396 45.4423 48.6675 41.069 48.6675C39.365 48.776 37.666 48.3892 36.1771 47.5535C34.6881 46.7179 33.4728 45.4692 32.6778 43.9582L36.4158 41.7812ZM20.1495 42.1802C20.8723 43.463 21.5303 44.548 23.1123 44.548C24.6243 44.548 25.5798 43.9565 25.5798 41.6552V25.998H30.184V41.7165C30.184 46.4835 27.384 48.6535 23.3083 48.6535C21.8676 48.7322 20.4368 48.3732 19.204 47.6235C17.9711 46.8739 16.994 45.7688 16.401 44.4535L20.1495 42.1802Z" fill="white"/>
</svg>
