<svg width="85" height="70" viewBox="0 0 85 70" fill="none" xmlns="http://www.w3.org/2000/svg">
<g clip-path="url(#clip0)">
<path d="M0.656921 41.0023L0.679107 48.9191C0.55092 50.4594 1.00204 52.1174 2.03248 52.8228L23.9379 67.8091C26.0874 69.2805 28.5058 69.2845 30.6555 67.8171L82.9709 32.1736C83.888 31.5493 84.3465 30.167 84.349 28.7848L84.3169 19.9762" fill="#DADADA"/>
<path d="M27.3005 70C26.0753 70 24.8502 69.5987 23.6866 68.8042L1.7788 53.8139C0.551145 52.9749 -0.153889 50.948 0.0285326 48.7752L0.00141437 41.0085C0.00141437 40.4166 0.292302 39.9343 0.652216 39.9302H0.654682C1.01459 39.9302 1.30795 40.4086 1.31041 41.0004L1.33013 48.9171C1.24139 50.0603 1.50516 51.2966 2.28169 51.8316L24.1895 66.8179C26.1913 68.184 28.4 68.1881 30.4042 66.822L82.7198 31.1785C83.4371 30.692 83.6934 29.6219 83.6934 28.7868L83.6589 19.9864C83.6565 19.3905 83.9474 18.9082 84.3073 18.9H84.3122C84.6746 18.9 84.9655 19.3784 84.9679 19.9702L85 28.7788C85 30.7367 84.3196 32.4189 83.2202 33.1688L30.9046 68.8123C29.7411 69.6068 28.5208 70 27.3005 70Z" fill="#41404D"/>
<path d="M61.0651 2.17188L82.9729 17.1581C84.807 18.4147 84.8046 22.6873 82.9705 23.9398L30.6549 59.5834C28.5054 61.0467 26.087 61.0426 23.9373 59.5712L2.02954 44.5849C0.195462 43.3283 0.197926 39.0557 2.032 37.8073L54.3476 2.16377C56.4971 0.700411 58.9155 0.700409 61.0651 2.17188Z" fill="#98D4FF"/>
<path d="M27.3 61.7631C26.0749 61.7631 24.8497 61.3617 23.6862 60.5672L1.77829 45.5769C0.681301 44.827 0.000915527 43.1448 0.000915527 41.1909C0.000915527 39.237 0.68623 37.5629 1.78076 36.813L39.4853 11.1211C39.8156 10.9063 40.2027 11.1536 40.3432 11.7049C40.4812 12.2561 40.321 12.8804 39.9858 13.1155L2.28365 38.7993C1.56629 39.2898 1.30991 40.3559 1.30991 41.1949C1.30744 42.03 1.56383 43.1001 2.28118 43.5947L24.189 58.581C26.1908 59.9511 28.3995 59.947 30.4037 58.589L82.7192 22.9415C83.4366 22.455 83.693 21.385 83.693 20.5499C83.693 19.7108 83.4366 18.6406 82.7217 18.1501L60.8138 3.15981C58.8393 1.814 56.5738 1.80995 54.5967 3.15575L49.9992 6.28516C49.6688 6.52837 49.2819 6.26083 49.1463 5.70548C49.0057 5.15824 49.1635 4.52993 49.4987 4.30293L54.0963 1.16948C56.3963 -0.395219 59.0242 -0.387113 61.3143 1.17758L83.2221 16.1679C84.3215 16.9178 84.9995 18.596 84.9995 20.5499C84.9995 22.4997 84.3191 24.1819 83.2196 24.9319L30.9041 60.5754C29.7406 61.3699 28.5203 61.7631 27.3 61.7631Z" fill="#41404D"/>
<path d="M65.0699 5.17664L75.887 12.5785L72.7143 14.6499C72.0363 15.1121 71.2746 15.1121 70.5968 14.6459L62.8044 9.78561C61.9021 9.16946 61.9021 7.06563 62.8068 6.44948L65.0699 5.17664Z" fill="white"/>
<path d="M65.046 6.32798L63.0172 7.46706C62.8076 7.61299 62.783 7.97375 62.783 8.11969C62.783 8.26562 62.8077 8.62639 63.0542 8.79259L70.8318 13.6407C71.3593 14.0055 71.946 14.0096 72.4661 13.6569L74.1523 12.5543L65.046 6.32798ZM71.6601 16.0648C71.2138 16.0648 70.7627 15.923 70.3461 15.6351L62.571 10.791C61.8857 10.3249 61.474 9.30741 61.474 8.11969C61.474 6.93198 61.8882 5.91046 62.5563 5.46051L64.8563 4.15929C65.0066 4.07822 65.1717 4.08228 65.3196 4.18768L76.1393 11.5815C76.3833 11.7518 76.546 12.149 76.5435 12.5827C76.541 13.0205 76.3759 13.4137 76.1318 13.5759L72.9542 15.6514C72.545 15.9269 72.1013 16.0648 71.6601 16.0648Z" fill="#41404D"/>
<path d="M46.155 41.4465C46.0688 41.4465 45.9849 41.4222 45.9035 41.3614L27.5332 28.7992C27.2005 28.5722 27.0427 27.9398 27.1807 27.3966C27.3188 26.8413 27.7033 26.5778 28.0361 26.8169L46.4064 39.3791C46.7393 39.6062 46.897 40.2385 46.7565 40.7817C46.653 41.1992 46.4114 41.4465 46.155 41.4465Z" fill="#41404D"/>
<path d="M36.6616 41.6856C36.5779 41.6856 36.494 41.6612 36.4102 41.6004L27.1856 35.289C26.8528 35.062 26.695 34.4296 26.833 33.8864C26.9711 33.3351 27.3532 33.0676 27.6885 33.3067L36.9131 39.6183C37.2458 39.8452 37.4036 40.4776 37.2656 41.0207C37.1596 41.4383 36.918 41.6856 36.6616 41.6856Z" fill="#41404D"/>
<path d="M58.919 25.2179C58.919 29.1419 54.7997 32.324 49.719 32.324C44.6359 32.324 40.5166 29.1419 40.5166 25.2179C40.5166 21.2941 44.6359 18.1161 49.719 18.1161C54.7997 18.1161 58.919 21.2941 58.919 25.2179Z" fill="white"/>
<path d="M49.7176 19.1907C44.6813 19.1907 41.1709 22.3647 41.1709 25.2184C41.1709 28.0722 44.6813 31.2462 49.7176 31.2462C54.7515 31.2462 58.2643 28.0722 58.2643 25.2184C58.2643 22.3647 54.7515 19.1907 49.7176 19.1907ZM49.7176 33.3986C44.1932 33.3986 39.862 29.8071 39.862 25.2184C39.862 20.6298 44.1932 17.0382 49.7176 17.0382C55.2446 17.0382 59.5708 20.6298 59.5708 25.2184C59.5708 29.8071 55.2446 33.3986 49.7176 33.3986Z" fill="#41404D"/>
</g>
<defs>
<clipPath id="clip0">
<rect width="85" height="70" fill="white"/>
</clipPath>
</defs>
</svg>
