<svg width="85" height="70" viewBox="0 0 85 70" fill="none" xmlns="http://www.w3.org/2000/svg">
<path fill-rule="evenodd" clip-rule="evenodd" d="M85 21.9357C85 20.3223 83.6674 19.0125 82.0259 19.0125H26.812C25.1705 19.0125 23.8379 20.3223 23.8379 21.9357V63.9373C23.8379 65.5507 25.1705 66.8605 26.812 66.8605H82.0259C83.6674 66.8605 85 65.5507 85 63.9373V21.9357Z" fill="url(#paint0_linear)"/>
<path fill-rule="evenodd" clip-rule="evenodd" d="M26.7365 28.1918H81.4327V62.0105C81.4327 63.043 80.5811 63.88 79.5306 63.88H29.352C27.9076 63.88 26.7365 62.729 26.7365 61.3093V28.1918Z" fill="url(#paint1_linear)"/>
<path d="M36.6785 30.6416H29.5676V38.6247H36.6785V30.6416Z" fill="#0BBC00"/>
<path d="M79.2575 31.2957H63.0489V38.7319H79.2575V31.2957Z" fill="#E5F1FF"/>
<path d="M43.9396 52.5586H29.8559V61.6429H43.9396V52.5586Z" fill="#E5F1FF"/>
<path d="M79.2596 52.1705H68.2823V61.3079H79.2596V52.1705Z" fill="url(#paint2_linear)"/>
<path d="M59.8727 41.6611H47.6871V44.3311H59.8727V41.6611Z" fill="#E5F1FF"/>
<path d="M33.9619 24.9457C34.8221 24.9457 35.5195 24.2602 35.5195 23.4147C35.5195 22.5691 34.8221 21.8837 33.9619 21.8837C33.1016 21.8837 32.4042 22.5691 32.4042 23.4147C32.4042 24.2602 33.1016 24.9457 33.9619 24.9457Z" fill="#0084FF"/>
<path d="M29.4785 24.9457C30.3388 24.9457 31.0362 24.2602 31.0362 23.4147C31.0362 22.5691 30.3388 21.8837 29.4785 21.8837C28.6183 21.8837 27.9209 22.5691 27.9209 23.4147C27.9209 24.2602 28.6183 24.9457 29.4785 24.9457Z" fill="#55D7FF"/>
<path d="M38.4339 24.9457C39.2941 24.9457 39.9915 24.2602 39.9915 23.4147C39.9915 22.5691 39.2941 21.8837 38.4339 21.8837C37.5736 21.8837 36.8762 22.5691 36.8762 23.4147C36.8762 24.2602 37.5736 24.9457 38.4339 24.9457Z" fill="#0BBC00"/>
<path fill-rule="evenodd" clip-rule="evenodd" d="M71.9194 23.1726C71.9194 22.4734 71.3418 21.9059 70.6306 21.9059H55.3766C54.6654 21.9059 54.0878 22.4734 54.0878 23.1726V23.6807C54.0878 24.3799 54.6654 24.9474 55.3766 24.9474H70.6306C71.3418 24.9474 71.9194 24.3799 71.9194 23.6807V23.1726Z" fill="#E5F1FF"/>
<path fill-rule="evenodd" clip-rule="evenodd" d="M81.8244 23.1598C81.8244 22.4555 81.2426 21.8837 80.526 21.8837H78.254C77.5374 21.8837 76.9557 22.4555 76.9557 23.1598V23.6694C76.9557 24.3737 77.5374 24.9455 78.254 24.9455H80.526C81.2426 24.9455 81.8244 24.3737 81.8244 23.6694V23.1598Z" fill="#E5F1FF"/>
<path d="M63.1257 43.978H43.4236V56.8272H63.1257V43.978Z" stroke="#CCE6FF" stroke-width="0.0128755" stroke-miterlimit="10"/>
<path d="M67.1493 44.1552V60.2727H42.6906V44.4814L54.8185 19.5557C58.9287 27.7556 63.039 35.9554 67.1493 44.1552ZM43.8802 44.7467V59.1034H65.9596V44.4276L54.8345 22.2332C51.1831 29.7376 47.5317 37.2422 43.8802 44.7467Z" fill="#CCE6FF"/>
<path fill-rule="evenodd" clip-rule="evenodd" d="M3.41411 69.9943H1.66928L4.4612 58.5006L7.07864 59.0151V62.7686H15.9874V59.0808L18.6288 58.5688L21.4461 70H19.6852L15.9874 64.199V63.8391H7.07864V64.1616L3.41411 69.9943Z" fill="#8CF885"/>
<path d="M62.293 41.8162H42.0477V55.01H62.293V41.8162Z" fill="#0084FF"/>
<path d="M8.31866 1.35805L0.989793 12.1656L0 11.517L7.32887 0.709473C7.6588 0.9256 7.98873 1.14173 8.31866 1.35805Z" fill="#8CF885"/>
<path d="M50.7109 12.8535L50.3645 13.9721L11.8372 2.44896L12.1835 1.33032C25.0261 5.1715 37.8684 9.01248 50.7109 12.8535Z" fill="#8CF885"/>
<path d="M64.8203 41.326V58.1736H39.4648V41.6682L52.0378 15.5979C56.2986 24.174 60.5595 32.7501 64.8203 41.326ZM40.6544 41.9313V57.0043H63.6306V41.5963L52.0537 18.2947C48.254 26.1735 44.4542 34.0525 40.6544 41.9313Z" fill="#55D7FF"/>
<path d="M8.40632 14.148C8.52767 14.1766 8.63771 14.2314 8.73388 14.312L15.7138 21.1741C16.1081 21.6282 15.946 21.7334 15.7138 22.0008L9.50338 28.1062L15.5393 34.0402C15.5393 34.0402 15.8898 34.4633 15.5393 34.8669L9.50338 40.8008L15.3648 46.5633C15.3648 46.5633 15.7154 46.9864 15.3648 47.39L8.90836 53.7372C8.5584 54.0311 7.89299 53.8621 7.89299 53.3239C7.89299 53.1719 7.96199 53.0315 8.06707 52.9105L14.103 46.9767L8.24156 41.2143C8.24156 41.2143 7.891 40.791 8.24156 40.3874L14.2775 34.4536L8.24156 28.5197C8.24156 28.5197 7.891 28.0964 8.24156 27.6928L14.452 21.5875L7.89259 15.1389C7.89259 15.1389 7.6846 14.8897 7.72584 14.634C7.77363 14.337 8.05399 14.1207 8.40632 14.148Z" fill="#8CF885"/>
<path d="M16.0664 15.5397L9.47231 21.9945L15.7154 28.1061C15.8917 28.308 15.8691 28.3411 15.8832 28.4286C15.9101 28.5952 15.9151 28.7055 15.7154 28.9345L9.64779 34.8742L15.7154 40.8139C15.7154 40.8139 16.0678 41.2384 15.7154 41.6424L9.82326 47.4104L15.8909 53.3501L15.0514 54.1785L8.56064 47.8247C8.56064 47.8247 8.20811 47.4002 8.56064 46.9962L14.4528 41.2282L8.38517 35.2883C8.38517 35.2883 8.03283 34.8639 8.38517 34.4599L14.4528 28.5202L8.20969 22.4088C8.20969 22.4088 7.85736 21.9844 8.20969 21.5804L15.2269 14.7111C15.5066 14.9874 15.7864 15.2636 16.0664 15.5397Z" fill="#8CF885"/>
<path d="M12.5379 2.05857L15.9927 11.8962L16.3767 54.0378H7.30304V0H12.3634C12.4215 0.686189 12.4796 1.37238 12.5379 2.05857ZM9.08752 1.75396V52.2839H14.5762L14.211 12.198L10.778 2.4232L10.7213 1.75396C10.1766 1.75396 9.63218 1.75396 9.08752 1.75396Z" fill="#0BBC00"/>
<path d="M51.4203 11.8991L55.1134 16.1285H0.147003V11.8398C17.2382 11.8595 34.3292 11.8794 51.4203 11.8991ZM1.93149 14.3745H51.2302L50.5995 13.6523L1.93149 13.596C1.93149 13.8553 1.93149 14.1149 1.93149 14.3745Z" fill="#8CF885"/>
<path fill-rule="evenodd" clip-rule="evenodd" d="M19.6874 53.2716C19.6874 52.8415 19.3321 52.4921 18.8943 52.4921H3.70219C3.37404 52.4921 3.10736 52.754 3.10736 53.0767V57.4297C3.10736 58.3978 3.90701 59.1836 4.89184 59.1836H17.9029C18.8877 59.1836 19.6874 58.3978 19.6874 57.4297V53.2716Z" fill="#0BBC00"/>
<path fill-rule="evenodd" clip-rule="evenodd" d="M18.0386 54.1877C18.0386 53.9189 17.8163 53.7004 17.5429 53.7004H5.24978C4.97616 53.7004 4.75409 53.9189 4.75409 54.1877V56.5263C4.75409 57.1179 5.24264 57.5981 5.84461 57.5981H16.948C17.5498 57.5981 18.0386 57.1179 18.0386 56.5263V54.1877Z" fill="#8CF885"/>
<defs>
<linearGradient id="paint0_linear" x1="83.5469" y1="35.8973" x2="83.5469" y2="98.0021" gradientUnits="userSpaceOnUse">
<stop stop-color="#8CF885"/>
<stop offset="1" stop-color="#1D98FF"/>
</linearGradient>
<linearGradient id="paint1_linear" x1="79.9718" y1="52.368" x2="79.9718" y2="90.6712" gradientUnits="userSpaceOnUse">
<stop stop-color="white"/>
<stop offset="1" stop-color="#D0E4FC"/>
</linearGradient>
<linearGradient id="paint2_linear" x1="73.5328" y1="60.3259" x2="73.5328" y2="45.349" gradientUnits="userSpaceOnUse">
<stop stop-color="#0BBC00"/>
<stop offset="1" stop-color="#79DF68"/>
</linearGradient>
</defs>
</svg>
