<svg width="36" height="36" viewBox="0 0 36 36" fill="none" xmlns="http://www.w3.org/2000/svg">
<path d="M18 0C22.7739 0 27.3523 1.89642 30.7279 5.27208C34.1036 8.64773 36 13.2261 36 18C36 22.7739 34.1036 27.3523 30.7279 30.7279C27.3523 34.1036 22.7739 36 18 36C13.2261 36 8.64773 34.1036 5.27208 30.7279C1.89642 27.3523 0 22.7739 0 18C0 13.2261 1.89642 8.64773 5.27208 5.27208C8.64773 1.89642 13.2261 0 18 0V0ZM18 2.94C9.729 2.94 3 9.669 3 18C2.99614 21.1664 3.99039 24.2534 5.84144 26.8224C7.69249 29.3913 10.3062 31.3115 13.311 32.31C13.3558 32.3167 13.4008 32.3217 13.446 32.325C14.055 32.355 14.283 31.938 14.283 31.575L14.262 29.013C10.092 29.922 9.21 26.991 9.21 26.991C8.529 25.251 7.545 24.789 7.545 24.789C6.183 23.853 7.647 23.871 7.647 23.871C8.742 23.949 9.459 24.735 9.771 25.161L9.945 25.425C11.283 27.726 13.455 27.063 14.31 26.679C14.448 25.704 14.832 25.041 15.261 24.663C11.931 24.282 8.43 22.989 8.43 17.217C8.43 15.573 9.015 14.229 9.975 13.173L9.885 12.918C9.693 12.309 9.429 10.944 10.122 9.186L10.242 9.165C10.614 9.117 11.886 9.126 14.247 10.731C15.47 10.3965 16.7321 10.226 18 10.224C19.275 10.23 20.559 10.398 21.756 10.734C24.621 8.784 25.878 9.186 25.878 9.186C26.694 11.262 26.178 12.792 26.028 13.176C26.988 14.226 27.567 15.573 27.567 17.217C27.567 23.007 24.06 24.279 20.718 24.651C21.258 25.116 21.738 26.037 21.738 27.441L21.72 31.575C21.72 31.965 21.975 32.421 22.689 32.31C25.6938 31.3115 28.3075 29.3913 30.1586 26.8224C32.0096 24.2534 33.0039 21.1664 33 18C33 9.669 26.271 2.94 18 2.94Z" fill="white"/>
</svg>
