<svg width="40" height="40" viewBox="0 0 40 40" fill="none" xmlns="http://www.w3.org/2000/svg">
<g clip-path="url(#clip0)">
<path opacity="0.2" d="M0 35.0291V36.8472C0 38.6018 1.14286 40 2.5 40H37.5C38.8929 40 40 38.6018 40 36.8472V35.0291C40 36.7836 38.8929 38.1818 37.5 38.1818H2.5C1.14286 38.1818 0 36.7836 0 35.0291Z" fill="black"/>
<path d="M36.2794 37.2038L34.3942 38.1819H5.46112L4.08228 37.3764C2.84887 36.6558 1.58545 36.4157 0.949367 34.8575L0 32.5317V5.94938L0.813743 3.55459C1.34737 1.98417 2.08843 2.91942 2.59042 1.26582L2.97468 0H36.9711L37.3644 0.920599C38.0127 2.43805 38.3414 2.94744 39.0958 4.41765L40 6.17953V32.8194L39.3219 35.0301C38.8201 36.6658 37.5692 36.5345 36.2794 37.2038Z" fill="#E4E4E4"/>
<path d="M2.49174 0.182157C1.27802 0.182157 0.281453 1.28307 0.0501676 2.70343C0.0499854 2.70453 0.0503489 2.70589 0.0501676 2.70698C0.00663899 3.12664 0.00567627 3.44916 0.00567627 3.44916V35.0035C0.00567627 36.7492 1.10842 38.2017 2.49439 38.1817H5.71996V3.44916C5.71996 3.23625 5.70282 3.04262 5.66996 2.87007C5.50425 1.96189 4.6591 0.937886 3.79568 0.181885L2.49174 0.182157Z" fill="#B63728"/>
<path d="M36.6485 0.45459C35.4528 0.889136 34.2585 1.74914 34.2857 3.17823V38.1819H37.45C38.8914 38.1819 40 36.7637 40 35.0492V3.60732C40 1.85205 38.8571 0.45459 37.5 0.45459H36.6485Z" fill="#B63728"/>
<path opacity="0.2" fill-rule="evenodd" clip-rule="evenodd" d="M37.1839 1.83165C36.5412 1.82164 35.9146 2.08831 35.4058 2.58843L20.0072 17.2882L4.60854 2.58843C4.30974 2.29107 3.96734 2.07256 3.60137 1.94569C3.23541 1.81883 2.85324 1.78615 2.47724 1.84958C2.10124 1.91301 1.73895 2.07127 1.41159 2.3151C1.08422 2.55892 0.798356 2.88342 0.570721 3.26959C0.343087 3.65576 0.178257 4.09584 0.0858793 4.56409C-0.00649864 5.03233 -0.0245687 5.51933 0.0327269 5.99657C0.0900225 6.47382 0.221533 6.93172 0.41956 7.34348C0.617587 7.75524 0.878153 8.11258 1.18601 8.39459L18.2959 24.7284C18.7896 25.1997 19.3901 25.4545 20.0072 25.4545C20.6243 25.4545 21.2248 25.1997 21.7184 24.7284L38.8284 8.39459C39.3122 7.94554 39.6727 7.31404 39.8588 6.58962C40.0449 5.86519 40.0471 5.08458 39.8652 4.35845C39.6832 3.63232 39.3263 2.9975 38.8451 2.54397C38.3638 2.09045 37.7827 1.84123 37.1839 1.83165Z" fill="black"/>
<path opacity="0.2" d="M2.49995 0.0290527H37.4999C39.0205 4.92754 38.1186 1.87055 37.4999 1.84724H2.49995C0.346233 4.78305 1.42852 1.20764 2.49995 0.0290527Z" fill="white"/>
<path fill-rule="evenodd" clip-rule="evenodd" d="M37.1839 0.0135343C36.5412 0.00352038 35.9146 0.270199 35.4058 0.770319L20.0072 15.47L4.60854 0.770319C4.30974 0.472956 3.96734 0.254446 3.60137 0.127579C3.23541 0.000712499 2.85324 -0.0319625 2.47724 0.0314668C2.10124 0.0948962 1.73895 0.253156 1.41159 0.496982C1.08422 0.740808 0.798356 1.0653 0.570721 1.45147C0.343087 1.83764 0.178257 2.27773 0.0858793 2.74597C-0.00649864 3.21422 -0.0245687 3.70122 0.0327269 4.17846C0.0900225 4.6557 0.221533 5.1136 0.41956 5.52536C0.617587 5.93712 0.878153 6.29447 1.18601 6.57648L18.2959 22.9103C18.7896 23.3816 19.3901 23.6364 20.0072 23.6364C20.6243 23.6364 21.2248 23.3816 21.7184 22.9103L38.8284 6.57648C39.3122 6.12743 39.6727 5.49593 39.8588 4.7715C40.0449 4.04707 40.0471 3.26647 39.8652 2.54033C39.6832 1.8142 39.3263 1.17938 38.8451 0.725858C38.3638 0.272334 37.7827 0.0231182 37.1839 0.0135343Z" fill="#D54B3D"/>
</g>
<defs>
<clipPath id="clip0">
<rect width="40" height="40" fill="white"/>
</clipPath>
</defs>
</svg>
