<svg width="60" height="60" viewBox="0 0 60 60" fill="none" xmlns="http://www.w3.org/2000/svg">
<path fill-rule="evenodd" clip-rule="evenodd" d="M6.66667 60H53.3333C57.0152 60 60 57.0152 60 53.3333V6.66667C60 2.98477 57.0152 0 53.3333 0H6.66667C2.98477 0 0 2.98477 0 6.66667V53.3333C0 57.0152 2.98477 60 6.66667 60Z" fill="#3E75C3"/>
<path fill-rule="evenodd" clip-rule="evenodd" d="M29.9987 10C18.955 10 10 18.9892 10 30.0805C10 38.9506 15.73 46.4765 23.6787 49.132C24.6787 49.3165 25.0437 48.6965 25.0437 48.1644C25.0437 47.6876 25.0262 46.4251 25.0162 44.7497C19.4525 45.9632 18.2787 42.0578 18.2787 42.0578C17.37 39.7387 16.0587 39.1212 16.0587 39.1212C14.2425 37.8751 16.1962 37.9002 16.1962 37.9002C18.2025 38.042 19.2587 39.9696 19.2587 39.9696C21.0437 43.0379 23.94 42.1519 25.08 41.6374C25.2612 40.3398 25.7787 39.455 26.35 38.9531C21.9087 38.4461 17.24 36.7243 17.24 29.0301C17.24 26.8377 18.0188 25.0457 19.2987 23.6414C19.0925 23.1331 18.4062 21.0925 19.4937 18.3279C19.4937 18.3279 21.1737 17.7882 24.9937 20.386C26.59 19.9405 28.3 19.7184 30.0012 19.7096C31.7 19.7184 33.4112 19.9405 35.0087 20.386C38.8262 17.7882 40.5025 18.3279 40.5025 18.3279C41.5937 21.0925 40.9075 23.1331 40.7012 23.6414C41.9837 25.0457 42.7575 26.8377 42.7575 29.0301C42.7575 36.7431 38.0812 38.441 33.6262 38.938C34.3437 39.558 34.9837 40.7828 34.9837 42.6564C34.9837 45.3408 34.9587 47.5056 34.9587 48.1644C34.9587 48.7016 35.3187 49.3265 36.3337 49.1295C44.275 46.469 50 38.948 50 30.0805C50 18.9892 41.045 10 29.9987 10Z" fill="white"/>
</svg>
