<svg width="60" height="60" viewBox="0 0 60 60" fill="none" xmlns="http://www.w3.org/2000/svg">
<path d="M53.4836 0H6.51639C2.91749 0 0 2.91749 0 6.51639V53.4836C0 57.0825 2.91749 60 6.51639 60H53.4836C57.0825 60 60 57.0825 60 53.4836V6.51639C60 2.91749 57.0825 0 53.4836 0Z" fill="#0273B3"/>
<path fill-rule="evenodd" clip-rule="evenodd" d="M40.4509 47.8278H47.9509V33.8114C48.0738 31.9671 47.4591 29.0163 46.7214 27.4179C45.8607 25.6966 44.6312 24.5901 42.664 23.9753C40.6968 23.3606 37.9918 23.2376 36.0246 23.9753C34.5492 24.4671 33.6886 25.2048 32.705 26.3114C32.582 26.4343 32.4591 26.5573 32.3361 26.8032C32.2132 26.9261 32.2132 27.0491 32.0902 27.0491C31.9673 27.4179 32.2132 27.295 31.8443 27.295V23.9753H24.8361C24.7132 24.3442 24.7132 47.5819 24.8361 47.9507H32.0902C32.2132 47.4589 32.2132 38.1147 32.2132 36.8851C32.2132 33.1966 32.582 30.1229 36.3935 29.9999C40.4509 29.754 40.4509 33.3196 40.4509 36.8851C40.4509 37.7458 40.5738 47.213 40.4509 47.8278ZM15.8607 12.172C13.6476 12.5409 11.8033 14.3851 12.1722 17.0901C12.4181 19.3032 14.5082 21.1474 17.0902 20.7786C19.1804 20.4097 21.0246 18.4425 20.6558 15.8606C20.4099 13.7704 18.3197 11.8032 15.8607 12.172ZM12.7869 47.9507H20.041C20.164 47.336 20.164 42.9097 20.164 41.9261C20.164 36.1474 20.164 29.8769 20.164 24.0983H12.7869V47.9507Z" fill="white"/>
<path fill-rule="evenodd" clip-rule="evenodd" d="M32.0902 47.9508H24.8361C24.7132 47.5819 24.7132 24.3442 24.8361 23.9754H31.4755L19.4263 13.4016C20.164 14.0164 20.5328 14.877 20.6558 15.8606C21.0246 18.4426 19.1804 20.4098 17.0902 20.7787C15.8607 20.9016 14.7541 20.5328 13.8935 19.918L17.9509 24.0983H20.164C20.164 29.877 20.164 36.1475 20.164 41.9262C20.164 42.9098 20.164 47.336 20.041 47.9508H12.7869L24.9591 60H53.6066L60 53.6065V40.3278L45.7377 25.9426C46.1066 26.4344 46.4755 26.9262 46.7214 27.418C47.4591 29.0164 48.0738 31.9672 47.9509 33.8114V47.8278H40.4509C40.5738 47.2131 40.4509 37.7459 40.4509 36.8852C40.4509 33.3196 40.4509 29.7541 36.3935 30C32.582 30.1229 32.2132 33.1967 32.2132 36.8852C32.2132 38.1147 32.2132 47.459 32.0902 47.9508Z" fill="#025E91"/>
<path fill-rule="evenodd" clip-rule="evenodd" d="M33.1968 25.8197L31.8443 24.4673V27.2952C32.2132 27.2952 31.9673 27.4181 32.0902 27.0493L32.3361 26.8034L32.705 26.3115C32.8279 26.0656 32.9509 25.9427 33.1968 25.8197Z" fill="#025E91"/>
</svg>
