<svg width="40" height="40" viewBox="0 0 40 40" fill="none" xmlns="http://www.w3.org/2000/svg">
<path d="M36.2189 0H3.78109C1.69285 0 0 1.69285 0 3.78109V36.2189C0 38.3071 1.69285 40 3.78109 40H36.2189C38.3071 40 40 38.3071 40 36.2189V3.78109C40 1.69285 38.3071 0 36.2189 0Z" fill="#2DC100"/>
<path fill-rule="evenodd" clip-rule="evenodd" d="M21.2935 6.7651C28.6567 7.76012 32.0398 11.3422 33.0348 18.7054C33.0348 19.5014 33.0348 20.2974 33.8308 20.2974C34.6268 20.2974 34.6268 19.7004 34.6268 19.1034C34.6268 19.1034 34.6268 18.9044 34.6268 18.7054C34.8259 11.7402 28.6567 5.37206 21.4925 5.17306C20.8955 5.17306 19.7015 4.77505 19.7015 5.96908C19.7015 6.7651 20.6965 6.56609 21.2935 6.7651Z" fill="#FEFEFE"/>
<path fill-rule="evenodd" clip-rule="evenodd" d="M22.6855 8.75612C21.8895 8.55712 21.0935 8.35811 20.8945 9.15413C20.6955 10.3482 21.6905 10.1492 22.4865 10.3482C27.0636 11.3432 28.6557 12.9352 29.4517 17.5123C29.4517 17.7113 29.4517 17.9104 29.4517 18.1094C29.4517 18.5074 29.6507 19.1044 30.4467 18.9054C30.8447 18.9054 31.0437 18.7064 31.0437 18.3084C31.0437 18.1094 31.0437 17.7113 31.0437 17.5123C31.0437 13.1342 27.2626 9.15413 22.6855 8.75612Z" fill="#FEFEFE"/>
<path fill-rule="evenodd" clip-rule="evenodd" d="M23.0848 12.1406C22.6868 12.1406 22.0897 12.3396 22.0897 12.7376C21.6917 13.5337 22.2888 13.7327 22.8858 13.7327C24.6768 14.1307 25.6718 15.1257 25.8708 16.9167C25.8708 17.3148 26.0698 17.5138 26.0698 17.7128C26.2689 17.7128 26.4679 17.9118 26.8659 17.9118L27.0649 17.7128C27.4629 17.5138 27.4629 17.1157 27.4629 16.7177C27.4629 14.5287 25.0748 12.1406 23.0848 12.1406Z" fill="#FEFEFE"/>
<path fill-rule="evenodd" clip-rule="evenodd" d="M32.6359 26.6627C31.6408 25.8667 30.6458 25.2697 29.8498 24.6727C27.8597 23.2796 26.0687 23.2796 24.4766 25.2697C23.6806 26.4637 22.6856 26.6627 21.4916 26.0657C18.1085 24.6727 15.5214 22.2846 14.1284 19.1005C13.9294 18.5035 13.7304 18.1055 13.7304 17.5085C13.5314 16.7125 13.9294 15.9165 14.9244 15.3194C15.7204 14.7224 16.5164 14.1254 16.5164 12.9314C16.5164 11.3393 12.5363 6.16521 11.1433 5.5682C10.5463 5.36919 9.94928 5.36919 9.15326 5.5682C5.57118 6.76223 4.17814 9.7473 5.57118 13.1304C6.3672 14.9214 7.36222 16.7125 8.35724 18.3045C12.7354 25.6677 19.1035 31.0408 27.4617 34.4239C28.0587 34.8219 28.6558 34.8219 28.8548 35.0209C31.2428 35.0209 34.0289 32.8319 34.8249 30.6428C35.4219 28.4538 33.8299 27.6577 32.6359 26.6627Z" fill="#FEFEFE"/>
</svg>
