<svg width="60" height="60" viewBox="0 0 60 60" fill="none" xmlns="http://www.w3.org/2000/svg">
<path d="M53.5614 0H6.43857C2.88265 0 0 2.88265 0 6.43857V53.5614C0 57.1174 2.88265 60 6.43857 60H53.5614C57.1174 60 60 57.1174 60 53.5614V6.43857C60 2.88265 57.1174 0 53.5614 0Z" fill="#2AB200"/>
<path fill-rule="evenodd" clip-rule="evenodd" d="M30.3266 9.3313C41.5241 9.3313 50.5754 18.3826 50.5754 29.4868C50.5754 40.6843 41.5241 49.7356 30.3266 49.7356C26.7807 49.7356 23.3281 48.8025 20.4354 47.2162L9.42456 50.6688L12.8771 39.8445C11.1042 36.8585 10.0777 33.3126 10.0777 29.4868C10.0777 18.3826 19.1291 9.3313 30.3266 9.3313ZM25.661 27.9938C25.661 27.9938 27.154 30.4199 29.5801 32.3795C32.0062 34.2458 33.3126 34.619 33.3126 34.619C33.3126 34.619 35.4588 31.9129 35.7387 31.9129C36.0187 31.8196 37.8849 32.6594 38.7247 33.126C39.4712 33.4993 40.591 34.1524 40.591 34.4324C40.591 34.619 40.4977 36.2986 39.9378 36.9518C39.3779 37.5117 37.7916 39.0047 36.2986 38.8181C29.0202 38.2582 22.3017 31.633 21.0886 26.7808C20.902 25.9409 20.9953 22.675 21.6485 21.8352C22.395 20.9954 22.8616 20.4355 23.7947 20.3422C24.7278 20.2489 25.2877 20.3422 25.5676 20.9954C25.9409 21.6486 27.3406 24.8212 27.4339 25.1944C27.5272 25.5677 25.5676 27.4339 25.661 27.9938ZM22.7683 44.6035C25.0078 45.7232 27.6205 46.3764 30.3266 46.3764C39.6578 46.3764 47.1229 38.8181 47.1229 29.4868C47.1229 20.2489 39.6578 12.6906 30.3266 12.6906C20.9953 12.6906 13.437 20.2489 13.437 29.4868C13.437 33.126 14.6501 36.4853 16.5163 39.1913L14.6501 45.6299L21.0886 43.6703L22.7683 44.6035Z" fill="white"/>
<path fill-rule="evenodd" clip-rule="evenodd" d="M50.5754 29.4868C50.5754 45.07 33.7792 54.6812 20.4354 47.2162L9.42456 50.6687L18.7558 60H53.4681L60 53.4681V31.1664L47.2162 18.3826C49.269 21.5552 50.5754 25.381 50.5754 29.4868Z" fill="#229000"/>
<path fill-rule="evenodd" clip-rule="evenodd" d="M22.7683 44.6033C33.7792 50.1088 47.1229 42.1772 47.1229 29.4867C47.1229 20.2488 39.6579 12.6904 30.3266 12.6904C16.6097 12.6904 8.77141 28.1803 16.5164 39.1912L14.6501 45.6298L21.0887 43.6702L22.7683 44.6033ZM36.2986 38.818C29.0202 38.2581 22.3017 31.6329 21.0887 26.7806C20.6221 24.8211 21.182 20.622 23.7947 20.3421C24.7279 20.2488 25.2877 20.3421 25.5677 20.9953C25.9409 21.6484 27.3406 24.8211 27.4339 25.1943C27.5272 25.5676 25.5677 27.4338 25.661 27.9937C26.6874 29.7666 30.6066 33.9657 33.3126 34.6189C35.9254 31.3529 35.2722 31.3529 38.7248 33.1259C39.4713 33.4991 40.591 34.1523 40.591 34.4323C40.591 37.2316 38.0716 39.0046 36.2986 38.818Z" fill="#229000"/>
</svg>
