<svg width="282" height="24" viewBox="0 0 282 24" fill="none" xmlns="http://www.w3.org/2000/svg">
<path d="M22.4112 18V4.125L20.6862 1.825H15.9362L12.8612 17.1H11.5112L8.43623 1.825H3.66123L1.96123 4.125V18H0.63623V3.65L3.01123 0.499999H9.51123L12.1862 13.775L14.8362 0.499999H21.3612L23.7362 3.65V18H22.4112ZM36.5716 17.975V16.95L35.1716 18H28.3966L25.9966 16V8.025L28.3966 6.075H35.1966L36.5716 7.475V6.075H37.8716V17.975H36.5716ZM36.5716 9.35L34.7466 7.375H28.8716L27.3466 8.65V15.4L28.8716 16.65H34.8216L36.5716 15.3V9.35ZM50.6823 18V16.95L49.2823 18H42.5323L40.1323 16.05V7.975L42.5323 6.05H49.3323L50.6823 7.425V0.574999H52.0323V18H50.6823ZM50.6823 9.275L48.9073 7.35H43.0073L41.4823 8.6V15.425L43.0073 16.65H48.9573L50.6823 15.325V9.275ZM55.6425 12.35V15.35L57.3675 16.65H63.3425L64.9175 15.325L65.8175 16.375L63.7925 18H56.9425L54.2925 16.05V8L56.9175 6.075H63.7925L66.1925 8.025V12.35H55.6425ZM64.8425 8.65L63.3425 7.375H57.3675L55.6425 8.7V11.075H64.8425V8.65ZM87.9688 18H81.2438L79.7938 16.975V18H78.4438V0.499999H79.7938V7.45L81.1438 6.05H87.9688L90.3688 8V16.05L87.9688 18ZM89.0688 8.625L87.5188 7.375H81.6188L79.7938 9.275V15.325L81.5188 16.65H87.5188L89.0688 15.4V8.625ZM95.3534 22.3L94.3284 21.425L97.2284 17.95L92.3784 12.475V6.05H93.7284V11.975L97.7034 16.5H98.4284L102.128 12.075V6.05H103.453V12.525L95.3534 22.3ZM115.724 14.85V3.65L118.124 0.499999H131.699L134.099 3.65V14.85L131.699 18H127.849V13.275L126.799 14.075H121.624L119.699 12.45V6.475L121.624 4.875H126.874L127.849 5.95V4.85H129.224V16.65H131.049L132.749 14.375V4.125L131.049 1.825H118.799L117.074 4.125V14.375L118.799 16.65H123.724V18H118.124L115.724 14.85ZM126.624 12.75L127.849 11.8V7.625L126.549 6.2H122.124L121.024 7.1V11.825L122.124 12.75H126.624ZM139.448 1.825L137.698 4.125V8.475H144.948V9.825H137.698V18H136.348V3.65L138.773 0.499999H147.198V1.825H139.448ZM148.61 4.225V2.7H149.885V4.225H148.61ZM148.61 18V6.05H149.86V18H148.61ZM154.944 18L152.394 14.875V0.499999H153.744V14.4L155.594 16.65H157.519V18H154.944ZM159.767 4.225V2.7H161.042V4.225H159.767ZM159.767 18V6.05H161.017V18H159.767ZM173.051 18H166.351L164.851 16.9V23.55H163.551V6.075H164.851V7.575L166.476 6.05H173.051L175.426 8V16.05L173.051 18ZM174.126 8.65L172.576 7.375H166.876L164.851 9.325V15.4L166.601 16.65H172.576L174.126 15.4V8.65ZM178.787 12.35V15.35L180.512 16.65H186.487L188.062 15.325L188.962 16.375L186.937 18H180.087L177.437 16.05V8L180.062 6.075H186.937L189.337 8.025V12.35H178.787ZM187.987 8.65L186.487 7.375H180.512L178.787 8.7V11.075H187.987V8.65ZM211.113 17.975L205.213 9.9L202.938 9.875V18H201.588V0.499999H202.938V8.55H205.213L211.113 0.499999H212.888V1.825H211.813L206.388 9.225L211.813 16.65H212.888V17.975H211.113ZM222.668 8.1L221.718 7.4H218.018L216.293 8.675V18H214.943V6.05H216.293V7.225L217.768 6.05H222.168L223.468 7.025L222.668 8.1ZM235.839 17.975V16.95L234.439 18H227.664L225.264 16V8.025L227.664 6.075H234.464L235.839 7.475V6.075H237.139V17.975H235.839ZM235.839 9.35L234.014 7.375H228.139L226.614 8.65V15.4L228.139 16.65H234.089L235.839 15.3V9.35ZM255.625 18V9.675L253.925 7.4H250.275L248.85 14.575H247.525L246.075 7.4H242.45L240.75 9.675V18H239.4V9.25L241.8 6.05H247.075L248.175 11.6L249.275 6.05H254.575L256.95 9.25V18H255.625ZM260.306 12.35V15.35L262.031 16.65H268.006L269.581 15.325L270.481 16.375L268.456 18H261.606L258.956 16.05V8L261.581 6.075H268.456L270.856 8.025V12.35H260.306ZM269.506 8.65L268.006 7.375H262.031L260.306 8.7V11.075H269.506V8.65ZM280.822 8.1L279.872 7.4H276.172L274.447 8.675V18H273.097V6.05H274.447V7.225L275.922 6.05H280.322L281.622 7.025L280.822 8.1Z" fill="white"/>
</svg>
